<?xml version="1.0" encoding="utf-8"?>
<!-- Generator: Adobe Illustrator 22.1.0, SVG Export Plug-In . SVG Version: 6.00 Build 0)  -->
<svg version="1.1" id="Layer_1" xmlns="http://www.w3.org/2000/svg" xmlns:xlink="http://www.w3.org/1999/xlink" x="0px" y="0px"
	 viewBox="0 0 332 72" style="enable-background:new 0 0 332 72;" xml:space="preserve">
<style type="text/css">
	.st0{fill:#FFFFFF;}
</style>
<g>
	<path class="st0" d="M0.2,72.2c0-24,0-48,0-72c110.6,0,221.3,0,331.9,0c0,24,0,48,0,72C221.5,72.2,110.9,72.2,0.2,72.2z
		 M205.1,32.6c0,13,10.4,23.2,23.5,23.2c12.8,0,23.1-10.4,23.1-23.4c0-13-10.9-23.4-23.9-23.1C215.5,9.5,205.1,20,205.1,32.6z
		 M17.5,31.8C17.5,46,28.9,57.6,43,57.6c14.4,0,25.9-11.3,25.9-25.5c0-14.3-11.4-25.9-25.4-25.9C29,6.2,17.5,17.5,17.5,31.8z
		 M193.8,40.9c0.2-0.1,0.3-0.2,0.4-0.3c6.4-3.7,9.4-9.6,8.5-16.8c-0.9-7.3-8-13.6-15.4-13.6c-5.4,0-10.7,0-16.1,0
		c-0.4,0-0.7,0-1.1,0c0,15,0,29.9,0,44.7c2.6,0,5.1,0,7.6,0c0-12.4,0-24.7,0-37c3.2,0,6.3-0.1,9.4,0c4.3,0.1,7.7,3.6,8,8
		c0.3,3.9-2.9,7.9-6.9,8.5c-1.6,0.3-3.2,0.2-4.9,0.3c-1,2.5-2,5-3.1,7.6c1.6,0,3,0,4.3,0c0.7,0,1,0.2,1.4,0.8
		c2.4,3.7,4.8,7.5,7.1,11.2c0.3,0.5,0.7,0.7,1.3,0.7c2.4,0,4.8,0,7.2,0c0.4,0,0.7,0,1.2,0C199.8,50.1,196.8,45.5,193.8,40.9z
		 M102.1,39.6c3-6.7,6-13.3,9-20c0.3,0.6,0.5,1,0.7,1.4c4.7,10.4,9.3,20.7,14,31.1c0.4,0.9,0.7,2.2,1.4,2.7c0.7,0.5,2,0.2,3,0.2
		c1.7,0,3.5,0,5.3,0c-0.1-0.3-0.2-0.5-0.2-0.6c-6.5-14.5-13.1-29-19.6-43.5c-0.2-0.5-0.5-0.7-1.1-0.7c-2.3,0-4.6,0.1-6.8,0
		c-0.7,0-1,0.3-1.3,0.9c-6.3,14-12.6,28-18.9,42c-0.3,0.6-0.5,1.2-0.8,2c2.7,0,5.3,0,7.9,0c0.3,0,0.7-0.4,0.8-0.7
		c0.9-1.9,1.8-3.9,2.6-5.9c0.3-0.8,0.7-1.2,1.7-1.2c5.4,0.1,10.7,0,16.1,0c0.4,0,0.7,0,1.1,0c0-0.2,0-0.3,0-0.3
		c-0.6-1.5-1.3-2.9-1.9-4.4c-0.4-1-0.7-2.3-1.4-2.8c-0.8-0.5-2.1-0.2-3.2-0.2C107.7,39.6,105,39.6,102.1,39.6z M167.2,47.3
		c-7.5,0-14.9,0-22.3,0c0-3.6,0-7.2,0-10.8c6.2,0,12.3,0,18.5,0c-0.6-2.2-1.1-4.4-1.6-6.5c-0.2-0.9-0.5-1.1-1.4-1.1
		c-4.8,0.1-9.6,0-14.4,0c-0.4,0-0.7,0-1.1,0c0-3.7,0-7.3,0-11c7.5,0,14.9,0,22.3,0c0-2.6,0-5.1,0-7.6c-10,0-20,0-30,0
		c0,14.9,0,29.8,0,44.7c10,0,20,0,30,0C167.2,52.4,167.2,49.9,167.2,47.3z M257.2,9.6c0,15.1,0,30.2,0,45.3c0.6,0,1.1,0,1.7,0
		c0-14,0-28,0-42.3c0.4,0.6,0.7,0.9,0.9,1.2c9.2,13.3,18.4,26.7,27.6,40c0.7,1,1.4,1.2,2.5,1c0-15.1,0-30.2,0-45.3
		c-0.6,0-1.1,0-1.7,0c0,14,0,27.9,0,42.2c-0.4-0.5-0.6-0.8-0.8-1.1c-9.2-13.3-18.4-26.7-27.6-40C259,9.7,258.3,9.3,257.2,9.6z
		 M295.5,9.6c0,0.2-0.1,0.4-0.1,0.5c0,10.5-0.1,21,0,31.4c0,4.5,1.7,8.4,5.5,11.2c3.2,2.4,6.8,2.9,10.7,2.9
		c8.9-0.1,14.8-5.9,14.8-14.8c0-10.1,0-20.1,0-30.2c0-0.4,0-0.7-0.1-1.1c-0.6,0-1.1,0-1.7,0c0,0.5,0,0.9,0,1.3c0,9.8,0,19.5,0,29.3
		c0,1.8-0.3,3.6-0.8,5.3c-1.1,3.5-3.5,6-6.8,7.3c-4,1.6-8.1,1.6-12.1,0c-5-2-7.8-6.5-7.8-12.5c0-9.8,0-19.6,0-29.5
		c0-0.4,0-0.8,0-1.2C296.5,9.6,296.1,9.6,295.5,9.6z M16.4,36.3c0.1,0,0.3,0,0.4,0c-1.5-6.3,0.1-12,2.8-17.6c-6.4,0-12.6,0-18.8,0
		c3.9,1.6,7.9,3.1,11.8,4.5c0.6,0.2,0.9,0.5,1,1.1c0.5,2.6,1.1,5.1,1.7,7.7C15.7,33.4,16.1,34.9,16.4,36.3z M69.6,36.1
		c0.1,0,0.3,0,0.4,0.1c0.1-0.2,0.2-0.5,0.2-0.7c0.8-3.6,1.7-7.3,2.5-10.9c0.2-0.7,0.4-1.2,1.3-1.5c3.4-1.2,6.7-2.5,10.1-3.7
		c0.6-0.2,1.1-0.4,1.7-0.6c0-0.1,0-0.1-0.1-0.2c-6.3,0-12.5,0-18.6,0c0.9,2.9,1.9,5.7,2.7,8.7C70.5,30,70.2,33.1,69.6,36.1z
		 M22.3,15C15,15.9,7.9,16.7,0.8,17.5c0.3,0.1,0.5,0.1,0.8,0.1c5.3-0.1,10.6-0.2,15.8-0.1C19.6,17.5,21.1,17.1,22.3,15z M64,14.8
		c0.6,0.6,1,1,1.3,1.5c0.5,0.8,1.2,1,2.1,1c4,0,7.9,0.1,11.9,0.1c2.1,0,4.1,0,6.2,0c0,0,0-0.1,0-0.1C78.4,16.5,71.3,15.7,64,14.8z"
		/>
	<path d="M205.1,32.6c0-12.6,10.4-23.1,22.6-23.3c13-0.3,23.9,10.2,23.9,23.1c0,13-10.3,23.4-23.1,23.4
		C215.5,55.8,205.1,45.5,205.1,32.6z M212.9,32.6c0,8.5,6.9,15.5,15.3,15.5c8.9,0,15.8-6.8,15.8-15.5c0-8.6-7-15.6-15.5-15.6
		C219.9,17,212.9,24,212.9,32.6z"/>
	<path d="M17.5,31.8c0-14.3,11.5-25.6,26-25.6c14,0,25.4,11.6,25.4,25.9c0,14.1-11.6,25.5-25.9,25.5C28.9,57.6,17.5,46,17.5,31.8z
		 M58.5,47.6c8.3-7.8,9.4-21.9,0.5-31c-9.1-9.3-23.6-8.9-32.2,0.8c-8.3,9.4-6.7,23.1,1.4,30.4c1.8-1.3,2.7-1.5,5.4-0.6
		c1.8-2.3,4-2.6,6.7-1.2c0.7-1.6,1.4-3.2,2.2-4.8c-0.5-0.1-0.8-0.2-1.2-0.2c0-0.7,0-1.4,0-2.3c-0.7,0.4-1.3,0.7-1.8,1
		c-0.1-0.1-0.2-0.1-0.3-0.2c0.5-1.1,0.9-2.3,1.5-3.3c0.3-0.5,0.6-0.9,0.6-1.5c0-4.3-0.1-8.5,0-12.8c0-2.2,0.3-4.3,0.6-6.5
		c0.1-1,0.4-1.9,1.5-2.7c0.3,0.7,0.8,1.2,0.9,1.8c0.4,2,0.8,3.9,0.8,5.9c0.1,4.8,0,9.6,0,14.4c0,0.4,0,0.9,0.3,1
		c1.4,1,1.2,2.6,1.9,4.1c-0.8-0.5-1.4-0.8-2.2-1.3c0,0.8,0,1.5,0,2.1c-0.4,0.1-0.6,0.1-1.1,0.2c0.7,1.6,1.4,3,2.1,4.5
		c3-1.5,4.3-1.3,6.8,1.1C55,46.2,56.8,46,58.5,47.6z"/>
	<path d="M193.8,40.9c3,4.6,6,9.3,9.1,14.1c-0.5,0-0.9,0-1.2,0c-2.4,0-4.8,0-7.2,0c-0.6,0-1-0.2-1.3-0.7c-2.4-3.7-4.8-7.5-7.1-11.2
		c-0.4-0.6-0.7-0.8-1.4-0.8c-1.4,0.1-2.8,0-4.3,0c1.1-2.6,2.1-5.1,3.1-7.6c1.7-0.1,3.3,0,4.9-0.3c4-0.6,7.1-4.6,6.9-8.5
		c-0.3-4.4-3.7-7.9-8-8c-3.1-0.1-6.2,0-9.4,0c0,12.3,0,24.6,0,37c-2.6,0-5.1,0-7.6,0c0-14.9,0-29.7,0-44.7c0.3,0,0.7,0,1.1,0
		c5.4,0,10.7,0,16.1,0c7.4,0,14.5,6.2,15.4,13.6c0.9,7.2-2.1,13.1-8.5,16.8C194.1,40.6,194,40.7,193.8,40.9z"/>
	<path d="M102.1,39.6c2.9,0,5.6,0,8.3,0c1.1,0,2.4-0.3,3.2,0.2c0.8,0.5,1,1.8,1.4,2.8c0.7,1.4,1.3,2.9,1.9,4.4c0,0.1,0,0.1,0,0.3
		c-0.4,0-0.7,0-1.1,0c-5.4,0-10.7,0-16.1,0c-1,0-1.4,0.3-1.7,1.2c-0.8,2-1.7,3.9-2.6,5.9c-0.1,0.3-0.6,0.7-0.8,0.7
		c-2.6,0.1-5.2,0-7.9,0c0.3-0.7,0.6-1.3,0.8-2c6.3-14,12.6-28,18.9-42c0.3-0.6,0.6-0.9,1.3-0.9c2.3,0.1,4.6,0,6.8,0
		c0.6,0,0.9,0.1,1.1,0.7c6.5,14.5,13.1,29,19.6,43.5c0.1,0.2,0.1,0.3,0.2,0.6c-1.9,0-3.6,0-5.3,0c-1,0-2.3,0.3-3-0.2
		c-0.7-0.5-1-1.8-1.4-2.7c-4.7-10.4-9.3-20.7-14-31.1c-0.2-0.4-0.4-0.8-0.7-1.4C108.1,26.4,105.1,32.9,102.1,39.6z"/>
	<path d="M167.2,47.3c0,2.7,0,5.1,0,7.6c-10,0-20,0-30,0c0-14.9,0-29.8,0-44.7c10,0,20,0,30,0c0,2.5,0,5,0,7.6c-7.4,0-14.8,0-22.3,0
		c0,3.7,0,7.3,0,11c0.4,0,0.7,0,1.1,0c4.8,0,9.6,0,14.4,0c0.9,0,1.2,0.3,1.4,1.1c0.5,2.2,1,4.3,1.6,6.5c-6.2,0-12.3,0-18.5,0
		c0,3.6,0,7.2,0,10.8C152.3,47.3,159.7,47.3,167.2,47.3z"/>
	<path d="M257.2,9.6c1.2-0.3,1.8,0.1,2.5,1.1c9.2,13.4,18.4,26.7,27.6,40c0.2,0.3,0.4,0.5,0.8,1.1c0-14.2,0-28.2,0-42.2
		c0.6,0,1.2,0,1.7,0c0,15.1,0,30.2,0,45.3c-1.1,0.2-1.8,0-2.5-1c-9.2-13.4-18.4-26.7-27.6-40c-0.2-0.3-0.5-0.6-0.9-1.2
		c0,14.3,0,28.3,0,42.3c-0.6,0-1.1,0-1.7,0C257.2,39.9,257.2,24.8,257.2,9.6z"/>
	<path d="M295.5,9.6c0.6,0,1,0,1.6,0c0,0.4,0,0.8,0,1.2c0,9.8,0,19.6,0,29.5c0,6,2.8,10.6,7.8,12.5c4,1.6,8.1,1.6,12.1,0
		c3.4-1.3,5.8-3.8,6.8-7.3c0.5-1.7,0.8-3.5,0.8-5.3c0.1-9.7,0-19.5,0-29.3c0-0.4,0-0.8,0-1.3c0.6,0,1.1,0,1.7,0
		c0,0.3,0.1,0.7,0.1,1.1c0,10.1,0,20.1,0,30.2c0,8.8-6,14.7-14.8,14.8c-3.9,0-7.5-0.5-10.7-2.9c-3.8-2.8-5.4-6.7-5.5-11.2
		c-0.1-10.5,0-21,0-31.4C295.4,9.9,295.5,9.8,295.5,9.6z"/>
	<path d="M16.4,36.3c-0.3-1.4-0.7-2.9-1-4.3c-0.6-2.6-1.2-5.1-1.7-7.7c-0.1-0.6-0.4-0.9-1-1.1c-4-1.4-7.9-2.9-11.8-4.5
		c6.2,0,12.5,0,18.8,0c-2.8,5.5-4.3,11.3-2.8,17.6C16.7,36.3,16.6,36.3,16.4,36.3z"/>
	<path d="M69.6,36.1c0.7-3,0.9-6,0.1-9c-0.8-2.9-1.8-5.8-2.7-8.7c6.1,0,12.4,0,18.6,0c0,0.1,0,0.1,0.1,0.2c-0.6,0.2-1.1,0.4-1.7,0.6
		c-3.4,1.2-6.7,2.5-10.1,3.7c-0.8,0.3-1.1,0.8-1.3,1.5c-0.8,3.6-1.6,7.3-2.5,10.9c-0.1,0.3-0.2,0.5-0.2,0.7
		C69.8,36.1,69.7,36.1,69.6,36.1z"/>
	<path d="M22.3,15c-1.2,2.1-2.7,2.5-4.8,2.5c-5.3-0.1-10.6,0.1-15.8,0.1c-0.3,0-0.5,0-0.8-0.1C7.9,16.7,15,15.9,22.3,15z"/>
	<path d="M64,14.8c7.3,0.8,14.4,1.7,21.4,2.5c0,0,0,0.1,0,0.1c-2.1,0-4.1,0-6.2,0c-4,0-7.9-0.1-11.9-0.1c-0.9,0-1.6-0.1-2.1-1
		C65,15.8,64.5,15.5,64,14.8z"/>
	<path class="st0" d="M212.9,32.6c0-8.5,7-15.5,15.6-15.5c8.6,0,15.5,7,15.5,15.6c0,8.7-6.9,15.5-15.8,15.5
		C219.8,48.1,212.9,41.1,212.9,32.6z"/>
	<path class="st0" d="M58.5,47.6c-1.7-1.6-3.5-1.4-5.4-0.7c-2.5-2.4-3.9-2.7-6.8-1.1c-0.7-1.5-1.4-2.9-2.1-4.5
		c0.5-0.1,0.8-0.2,1.1-0.2c0-0.6,0-1.3,0-2.1c0.8,0.4,1.4,0.8,2.2,1.3c-0.7-1.5-0.5-3.1-1.9-4.1c-0.2-0.2-0.3-0.7-0.3-1
		c0-4.8,0.1-9.6,0-14.4c0-2-0.5-4-0.8-5.9c-0.1-0.6-0.6-1.2-0.9-1.8c-1.1,0.7-1.4,1.7-1.5,2.7c-0.3,2.2-0.6,4.3-0.6,6.5
		c-0.1,4.3,0,8.5,0,12.8c0,0.6-0.3,1-0.6,1.5c-0.6,1-1,2.2-1.5,3.3c0.1,0.1,0.2,0.1,0.3,0.2c0.6-0.3,1.1-0.6,1.8-1
		c0,0.9,0,1.6,0,2.3c0.3,0.1,0.6,0.1,1.2,0.2c-0.7,1.6-1.4,3.2-2.2,4.8c-2.7-1.4-4.9-1-6.7,1.2c-2.7-0.9-3.7-0.8-5.4,0.6
		c-8.1-7.3-9.8-21.1-1.4-30.4C35.3,7.7,49.8,7.3,59,16.6C67.9,25.7,66.8,39.8,58.5,47.6z"/>
</g>
</svg>
