<?xml version="1.0" encoding="UTF-8" standalone="no"?>
<!-- Created with Inkscape (http://www.inkscape.org/) -->

<svg
   xmlns:dc="http://purl.org/dc/elements/1.1/"
   xmlns:cc="http://creativecommons.org/ns#"
   xmlns:rdf="http://www.w3.org/1999/02/22-rdf-syntax-ns#"
   xmlns:svg="http://www.w3.org/2000/svg"
   xmlns="http://www.w3.org/2000/svg"
   xmlns:sodipodi="http://sodipodi.sourceforge.net/DTD/sodipodi-0.dtd"
   xmlns:inkscape="http://www.inkscape.org/namespaces/inkscape"
   width="461.09512mm"
   height="100mm"
   viewBox="0 0 461.09512 100"
   version="1.1"
   id="svg8"
   inkscape:version="0.92.4 (5da689c313, 2019-01-14)"
   sodipodi:docname="AeroNU Inkscape Logo 2 [INKSCAPE SVG].svg">
  <defs
     id="defs2" />
  <sodipodi:namedview
     id="base"
     pagecolor="#ffffff"
     bordercolor="#666666"
     borderopacity="1.0"
     inkscape:pageopacity="0.0"
     inkscape:pageshadow="2"
     inkscape:zoom="0.7"
     inkscape:cx="839.91739"
     inkscape:cy="59.431245"
     inkscape:document-units="mm"
     inkscape:current-layer="layer1"
     showgrid="false"
     fit-margin-top="0"
     fit-margin-left="0"
     fit-margin-right="0"
     fit-margin-bottom="0"
     inkscape:window-width="1920"
     inkscape:window-height="1001"
     inkscape:window-x="1991"
     inkscape:window-y="-9"
     inkscape:window-maximized="1" />
  <metadata
     id="metadata5">
    <rdf:RDF>
      <cc:Work
         rdf:about="">
        <dc:format>image/svg+xml</dc:format>
        <dc:type
           rdf:resource="http://purl.org/dc/dcmitype/StillImage" />
        <dc:title></dc:title>
      </cc:Work>
    </rdf:RDF>
  </metadata>
  <g
     inkscape:label="Layer 1"
     inkscape:groupmode="layer"
     id="layer1"
     transform="translate(138.33929,-86.763245)">
    <path
       style="fill:#000000;stroke-width:1.08920097"
       d="M 108.14258 99.796875 L 82.945312 99.830078 L 57.746094 99.865234 L 33.683594 99.974609 L 10.070312 101.03711 L 43.810547 113.55664 L 75.193359 125.3457 L 82.560547 156.5957 L 90.134766 189.92773 L 92.431641 188.91992 L 90.3125 162.78711 L 94.082031 136.82812 L 106.08594 103.88086 L 108.14258 99.796875 z "
       id="path3905"
       transform="matrix(0.26458333,0,0,0.26458333,-138.33929,86.763245)" />
    <path
       style="fill:#000000;stroke-width:1.08920097"
       d="M 119.74023 80.894531 L 92.136719 84.125 L 64.53125 87.28125 L 37.015625 90.445312 L 9.5429688 93.763672 L 27.400391 93.748047 L 53.320312 93.382812 L 79.246094 93.261719 L 111.04102 93.261719 L 116.58203 86.890625 L 119.74023 80.894531 z "
       id="path3903"
       transform="matrix(0.26458333,0,0,0.26458333,-138.33929,86.763245)" />
    <path
       style="fill:#000000;stroke-width:1.08920097"
       d="M 817.14258 95.439453 L 823.70508 95.439453 L 853.11328 95.439453 L 882.52148 95.439453 L 882.52148 75.289062 L 882.52148 55.138672 L 856.19922 55.138672 L 829.87695 55.138672 L 817.14258 55.138672 L 817.14258 95.439453 z "
       id="path3951"
       transform="matrix(0.26458333,0,0,0.26458333,-138.33929,86.763245)" />
    <path
       style="fill:#000000;stroke-width:1.08920097"
       d="M 817.14258 193.45703 L 837.67773 193.40039 L 861.79688 192.10547 L 857.09961 172.22852 L 852.43164 153.71094 L 830.54688 153.56836 L 817.14258 153.48047 L 817.14258 193.45703 z "
       id="path3949"
       transform="matrix(0.26458333,0,0,0.26458333,-138.33929,86.763245)" />
    <path
       style="fill:#000000;stroke-width:1.08920097"
       d="M 817.14258 290.40625 L 829.87695 290.40625 L 856.19922 290.40625 L 882.52148 290.40625 L 882.52148 270.25586 L 882.52148 250.10547 L 853.11328 250.10547 L 823.70508 250.10547 L 817.14258 250.10547 L 817.14258 290.40625 z "
       id="path3947"
       transform="matrix(0.26458333,0,0,0.26458333,-138.33929,86.763245)" />
    <path
       style="fill:#000000;stroke-width:1.08920097"
       d="M 817.14258 290.40625 L 817.14258 250.10547 L 794.29492 250.10547 L 764.88672 250.10547 L 764.88672 221.78711 L 764.88672 193.4668 L 789.12305 193.4668 L 813.35742 193.4668 L 817.14258 193.45703 L 817.14258 153.48047 L 808.66016 153.42578 L 786.77344 153.28516 L 764.88672 153.14258 L 764.88672 124.29102 L 764.88672 95.439453 L 794.29492 95.439453 L 817.14258 95.439453 L 817.14258 55.138672 L 803.55469 55.138672 L 777.23242 55.138672 L 750.91016 55.138672 L 724.58789 55.138672 L 724.58789 84.548828 L 724.58789 113.95703 L 724.58789 143.36328 L 724.58789 172.77344 L 724.58789 202.18164 L 724.58789 231.5918 L 724.58789 260.99805 L 724.58789 290.40625 L 750.91016 290.40625 L 777.23242 290.40625 L 803.55469 290.40625 L 817.14258 290.40625 z "
       id="path3901"
       transform="matrix(0.26458333,0,0,0.26458333,-138.33929,86.763245)" />
    <path
       style="fill:#000000;stroke-width:1.08920097"
       d="M 1424.9062 140.99219 L 1420.6055 134.75586 L 1401.5469 107.12695 L 1382.4922 79.5 L 1363.4355 51.871094 L 1358.7891 51.871094 L 1354.1445 51.871094 L 1354.1445 81.689453 L 1354.1445 111.50781 L 1354.1445 140.99219 L 1362.9199 140.99219 L 1363 105.57617 L 1364.8008 69.917969 L 1384.1426 97.699219 L 1403.3926 125.54688 L 1414.0488 140.99219 L 1424.9062 140.99219 z "
       id="path3899"
       transform="matrix(0.26458333,0,0,0.26458333,-138.33929,86.763245)" />
    <path
       style="fill:#000000;stroke-width:1.08920097"
       d="M 1432.3945 167.5957 L 1441.8262 181.28125 L 1460.6152 208.56055 L 1479.4043 235.83789 L 1498.1914 263.11328 L 1516.9805 290.39062 L 1521.6094 290.39844 L 1526.2383 290.40625 L 1526.2383 260.58789 L 1526.2383 230.76953 L 1526.2383 200.95508 L 1526.2383 171.13867 L 1526.2383 141.32031 L 1526.2383 111.50195 L 1526.2383 81.689453 L 1526.2383 51.871094 L 1521.8828 51.871094 L 1517.5254 51.871094 L 1517.5254 88.722656 L 1517.5254 125.57422 L 1517.5254 162.42578 L 1517.4785 199.26758 L 1517.3164 236.10938 L 1516.709 272.93945 L 1497.2324 245.45703 L 1477.9941 217.80273 L 1458.8105 190.10742 L 1439.6641 162.38672 L 1432.3945 151.84766 L 1432.3945 167.5957 z "
       id="path3897"
       transform="matrix(0.26458333,0,0,0.26458333,-138.33929,86.763245)" />
    <path
       style="fill:#000000;stroke-width:1.08920097"
       d="M 1432.3945 167.5957 L 1432.3945 151.84766 L 1424.9062 140.99219 L 1414.0488 140.99219 L 1422.6172 153.41016 L 1432.3945 167.5957 z "
       id="path3895"
       transform="matrix(0.26458333,0,0,0.26458333,-138.33929,86.763245)" />
    <path
       style="fill:#000000;stroke-width:1.08920097"
       d="M 1354.1445 214.36523 L 1354.1445 230.77539 L 1354.1445 260.58984 L 1354.1445 290.4082 L 1358.5 290.4082 L 1362.8574 290.4082 L 1362.8691 253.28516 L 1362.8828 216.16211 L 1362.8828 214.36523 L 1354.1445 214.36523 z "
       id="path3893"
       transform="matrix(0.26458333,0,0,0.26458333,-138.33929,86.763245)" />
    <path
       style="fill:#000000;stroke-width:1.08920097"
       d="M 1354.1445 214.36523 L 1362.8828 214.36523 L 1362.8945 179.03711 L 1362.916 142.30664 L 1362.9199 140.99219 L 1354.1445 140.99219 L 1354.1445 141.32227 L 1354.1445 171.13867 L 1354.1445 200.95703 L 1354.1445 214.36523 z "
       id="path3891"
       transform="matrix(0.26458333,0,0,0.26458333,-138.33929,86.763245)" />
    <path
       style="fill:#000000;stroke-width:1.08920097"
       d="M 1320.4805 140.99219 L 1277.5527 140.99219 L 1281.252 147.47266 L 1284.8379 172.77344 L 1281.8027 196.73438 L 1273.043 214.36523 L 1317.9512 214.36523 L 1325.0215 185.02539 L 1323.1328 148.20898 L 1320.4805 140.99219 z "
       id="path3889"
       transform="matrix(0.26458333,0,0,0.26458333,-138.33929,86.763245)" />
    <path
       style="fill:#000000;stroke-width:1.08920097"
       d="M 1555.5645 51.871094 L 1555.6855 82.097656 L 1555.8066 112.32227 L 1555.9297 142.54688 L 1556.0391 171.01953 L 1556.2129 199.49414 L 1556.9629 227.95703 L 1564.6758 255.00781 L 1587.4902 280.28516 L 1619.3652 292.5293 L 1641.5703 293.13477 L 1663.6348 290.57422 L 1691.6777 276.66992 L 1710.8418 251.99023 L 1717.5352 215.17969 L 1717.9141 177.38867 L 1717.9375 139.59766 L 1717.9375 110.35547 L 1717.9375 81.113281 L 1717.9375 51.871094 L 1713.582 51.871094 L 1709.2246 51.871094 L 1709.2188 80.644531 L 1709.2129 109.41797 L 1709.2051 138.18945 L 1709.1777 175.35352 L 1708.793 212.51953 L 1701.6602 248.55469 L 1684.3027 269.98633 L 1659.4727 282.08984 L 1631.8906 284.61719 L 1600.3047 276.60156 L 1584.209 264.82812 L 1572.1895 248.9375 L 1565.1816 213.49609 L 1564.7617 176.93359 L 1564.6211 140.36914 L 1564.5098 110.86914 L 1564.3984 81.371094 L 1564.2871 51.871094 L 1559.9258 51.871094 L 1555.5645 51.871094 z "
       id="path3912"
       transform="matrix(0.26458333,0,0,0.26458333,-138.33929,86.763245)" />
    <path
       style="fill:#000000;stroke-width:1.08920097"
       d="M 226.13281 219.38086 L 238.71484 219.38086 L 239.43555 217.43164 L 242.07227 211.4375 L 242.07227 205.44531 L 247.21875 208.65039 L 252.69922 211.52344 L 250.37891 202.8418 L 244.90039 192.26758 L 242.07227 190.04297 L 242.05469 168.16211 L 242.03711 146.28125 L 241.54688 108.5957 L 234.3418 72.136719 L 229.95508 71.056641 L 222.4668 99.119141 L 221.60352 124.47266 L 221.38672 149.83984 L 221.38086 169.14453 L 221.37695 188.44727 L 218.4082 191.54688 L 213.10547 202.73047 L 210.77148 210.81836 L 213.07812 209.61328 L 218.38086 206.31055 L 221.37695 204.21289 L 221.37695 210.82227 L 224.04102 217.43164 L 226.70508 217.43164 L 226.13281 219.38086 z "
       id="path3910"
       transform="matrix(0.26458333,0,0,0.26458333,-138.33929,86.763245)" />
    <path
       style="fill:#000000;stroke-width:1.08920097"
       d="M 356.36719 219.38086 L 334.33594 219.38086 L 317.24414 246.06836 L 309.50195 250.00586 L 304.58594 246.79492 L 286.26172 247.00195 L 278.69922 243.81641 L 252.99023 239.29492 L 246.63867 239.54297 L 237.92578 221.51562 L 238.71484 219.38086 L 226.13281 219.38086 L 225.02539 223.14844 L 216.47266 240.71484 L 210.51367 240.98828 L 191.64062 240.96875 L 184.33594 246.37695 L 176.16602 248.48242 L 159.56836 248.51367 L 153.77344 251.80664 L 147.54883 248.60547 L 127.76758 219.75391 L 127.65039 219.38086 L 106.33203 219.38086 L 118.92773 243.33008 L 136.31836 264.36523 L 156.49023 281.23828 L 179.64062 293.68945 L 204.79492 301.38281 L 234.44727 303.05664 L 264.94336 299.92383 L 293.44141 288.83594 L 318.79688 271.75 L 339.71289 249.44922 L 356.01758 220.65625 L 356.36719 219.38086 z "
       id="path3908"
       transform="matrix(0.26458333,0,0,0.26458333,-138.33929,86.763245)" />
    <path
       style="fill:#000000;stroke-width:1.08920097"
       d="M 1001.4277 176.51172 L 981.47461 183.42969 L 967.69727 183.88086 L 959.625 203.65234 L 951.55469 223.42383 L 965.23828 223.72656 L 978.92188 224.02734 L 989.53906 240.62109 L 1000.1582 257.21289 L 1001.4277 259.19727 L 1001.4277 176.51172 z "
       id="path3930"
       transform="matrix(0.26458333,0,0,0.26458333,-138.33929,86.763245)" />
    <path
       style="fill:#000000;stroke-width:1.08920097"
       d="M 1001.4277 59.134766 L 985.9375 55.845703 L 949.23438 55.402344 L 923.50195 55.210938 L 897.76953 55.021484 L 897.76953 84.445312 L 897.76953 113.86914 L 897.76953 143.29102 L 897.76953 172.71484 L 897.76953 172.7168 L 897.76953 202.14258 L 897.76953 231.56641 L 897.76953 260.98633 L 897.76953 290.41016 L 917.91992 290.41016 L 938.07031 290.41016 L 938.07031 257.89258 L 938.07031 225.37695 L 938.07031 192.85938 L 938.07031 160.34375 L 938.07031 127.82812 L 938.07031 95.310547 L 966.66211 95.666016 L 992.04883 96.568359 L 1001.4277 101.00781 L 1001.4277 59.134766 z "
       id="path3928"
       transform="matrix(0.26458333,0,0,0.26458333,-138.33929,86.763245)" />
    <path
       style="fill:#000000;stroke-width:1.08920097"
       d="M 1001.4277 59.134766 L 1001.4277 101.00781 L 1014.4336 107.16602 L 1026.5215 124.95508 L 1028.6406 146.26562 L 1014.332 172.03906 L 1001.4277 176.51172 L 1001.4277 259.19727 L 1010.7754 273.80664 L 1021.3945 290.39844 L 1045.5977 290.40234 L 1069.7988 290.40625 L 1058.7617 273.25195 L 1046.8027 254.6582 L 1034.8496 236.0625 L 1021.9746 216.02734 L 1028.7637 212.11719 L 1044.5996 199.01367 L 1057.7988 183.26758 L 1067.166 159.26758 L 1069.4551 133.61719 L 1060.6699 102.51953 L 1044.3672 79.611328 L 1021.3945 63.373047 L 1001.4277 59.134766 z "
       id="path3923"
       transform="matrix(0.26458333,0,0,0.26458333,-138.33929,86.763245)" />
    <path
       style="fill:#000000;stroke-width:1.08920097"
       d="M 1218.5723 93.025391 L 1222.2246 93.332031 L 1240.4688 100.32617 L 1265.4922 119.87109 L 1277.5527 140.99219 L 1320.4805 140.99219 L 1310.4082 113.59766 L 1287.9258 84.382812 L 1262.4258 65.759766 L 1232.9922 54.324219 L 1218.5723 52.703125 L 1218.5723 93.025391 z "
       id="path3958"
       transform="matrix(0.26458333,0,0,0.26458333,-138.33929,86.763245)" />
    <path
       style="fill:#000000;stroke-width:1.08920097"
       d="M 1218.5723 293.60742 L 1248.4707 286.25781 L 1277.4375 269.90234 L 1300.9512 246.375 L 1317.2285 217.36133 L 1317.9512 214.36523 L 1273.043 214.36523 L 1270.0684 220.35156 L 1251.459 238.99805 L 1227.7969 250.63672 L 1218.5723 252.17578 L 1218.5723 293.60742 z "
       id="path3956"
       transform="matrix(0.26458333,0,0,0.26458333,-138.33929,86.763245)" />
    <path
       style="fill:#000000;stroke-width:1.08920097"
       d="M 1218.5723 293.60742 L 1218.5723 252.17578 L 1207.4902 254.02344 L 1186.9531 252.73047 L 1158.7188 240.75586 L 1136.8105 219.31641 L 1124.1855 191.36523 L 1122.4141 169.58008 L 1128.2695 141.35352 L 1144.4121 117.4668 L 1160.0801 104.25586 L 1178.5371 95.351562 L 1202.7461 91.701172 L 1218.5723 93.025391 L 1218.5723 52.703125 L 1201.6152 50.798828 L 1170.375 55.380859 L 1141.3691 67.853516 L 1116.6113 87.445312 L 1097.418 112.39258 L 1085.5254 141.50781 L 1081.8457 172.77344 L 1085.5254 204.03711 L 1097.418 233.15234 L 1116.6113 258.09961 L 1136.0898 274.35352 L 1158.5098 286.22852 L 1182.916 293.12695 L 1216.1641 294.19922 L 1218.5723 293.60742 z "
       id="path3921"
       transform="matrix(0.26458333,0,0,0.26458333,-138.33929,86.763245)" />
    <path
       style="fill:#000000;stroke-width:1.08920097"
       d="M 592.85742 115.44141 L 603.12109 137.77539 L 617.50977 169.57422 L 631.85156 201.38867 L 646.16406 233.22266 L 660.43555 265.07031 L 671.75977 290.38477 L 684.28516 290.39062 L 684.28516 218.95898 L 676.44922 201.54297 L 663.23828 172.22852 L 650.09766 143.08984 L 636.95508 113.95312 L 623.81641 84.820312 L 610.67383 55.683594 L 592.85742 55.449219 L 592.85742 115.44141 z "
       id="path3942"
       transform="matrix(0.26458333,0,0,0.26458333,-138.33929,86.763245)" />
    <path
       style="fill:#000000;stroke-width:1.08920097"
       d="M 592.85742 250.10352 L 595.5293 250.10352 L 619.88281 250.10352 L 610.90625 230.22656 L 601.92969 210.34961 L 592.85742 210.1875 L 592.85742 250.10352 z "
       id="path3940"
       transform="matrix(0.26458333,0,0,0.26458333,-138.33929,86.763245)" />
    <path
       style="fill:#000000;stroke-width:1.08920097"
       d="M 592.85742 250.10352 L 592.85742 210.1875 L 571.42578 209.80469 L 540.91992 209.25977 L 552.64062 183.26172 L 564.36328 157.26172 L 576.13086 131.49023 L 588.55078 106.07031 L 592.85742 115.44141 L 592.85742 55.449219 L 588.2793 55.388672 L 565.88477 55.095703 L 553.31641 82.982422 L 540.74805 110.86914 L 528.18164 138.75391 L 515.61328 166.64062 L 502.35938 196.05664 L 489.10742 225.4707 L 475.86133 254.89062 L 462.63086 284.31836 L 459.91992 290.44922 L 482.30469 290.1543 L 504.68945 289.85938 L 513.57812 269.98242 L 522.46484 250.10352 L 546.82031 250.10352 L 571.17383 250.10352 L 592.85742 250.10352 z "
       id="path3919"
       transform="matrix(0.26458333,0,0,0.26458333,-138.33929,86.763245)" />
    <path
       style="fill:#000000;stroke-width:1.08920097"
       d="M 684.28516 218.95898 L 684.28516 290.39062 L 693.81641 290.39648 L 715.83984 289.58984 L 702.80469 260.20312 L 689.64258 230.86719 L 684.28516 218.95898 z "
       id="path3917"
       transform="matrix(0.26458333,0,0,0.26458333,-138.33929,86.763245)" />
    <path
       style="fill:#000000;stroke-width:1.08920097"
       d="M 255.71484 36.992188 L 252.89453 36.216797 L 223.76562 34.785156 L 194.96094 39.439453 L 172.23438 48.464844 L 151.12305 60.808594 L 129.01562 81.779297 L 111.97461 107.05078 L 100.8418 135.41992 L 97.357422 164.07812 L 98.761719 192.92188 L 106.22461 219.17773 L 106.33203 219.38086 L 127.65039 219.38086 L 117.33008 186.37695 L 117.43164 151.40625 L 128.1582 118.11914 L 148.39453 89.585938 L 178.34961 66.923828 L 214 55.107422 L 236.82617 54.361328 L 255.71484 56.857422 L 255.71484 36.992188 z "
       id="path3935"
       transform="matrix(0.26458333,0,0,0.26458333,-138.33929,86.763245)" />
    <path
       style="fill:#000000;stroke-width:1.08920097"
       d="M 405.71484 98.763672 L 380.52734 98.802734 L 355.34766 99.203125 L 359.63867 109.44922 L 370.5625 144.14062 L 371.63672 180.39648 L 369.89648 189.51172 L 370.75391 191.05469 L 379.85547 157.43359 L 387.47852 124.30273 L 402.72852 118.63086 L 405.71484 117.52148 L 405.71484 98.763672 z "
       id="path4026"
       transform="matrix(0.26458333,0,0,0.26458333,-138.33929,86.763245)" />
    <path
       style="fill:#000000;stroke-width:1.08920097"
       d="M 405.71484 98.763672 L 405.71484 117.52148 L 437.03711 105.88867 L 456.09961 98.820312 L 430.91016 98.792969 L 405.72266 98.763672 L 405.71484 98.763672 z "
       id="path4024"
       transform="matrix(0.26458333,0,0,0.26458333,-138.33929,86.763245)" />
    <path
       style="fill:#000000;stroke-width:1.08920097"
       d="M 405.71484 87.125 L 379.46875 84.126953 L 343.30469 80.191406 L 346.12695 85.908203 L 351.26562 91.626953 L 384.62109 92.195312 L 405.71484 92.505859 L 405.71484 87.125 z "
       id="path4022"
       transform="matrix(0.26458333,0,0,0.26458333,-138.33929,86.763245)" />
    <path
       style="fill:#000000;stroke-width:1.08920097"
       d="M 405.71484 87.125 L 405.71484 92.505859 L 418.39258 92.691406 L 451.74219 92.568359 L 415.61719 88.255859 L 405.71484 87.125 z "
       id="path4020"
       transform="matrix(0.26458333,0,0,0.26458333,-138.33929,86.763245)" />
    <path
       style="fill:#000000;stroke-width:1.08920097"
       d="M 255.71484 36.992188 L 255.71484 56.857422 L 259.4707 57.353516 L 286.11719 67.873047 L 309.42188 84.525391 L 327.96289 106.36133 L 343.0625 140.67773 L 346.2793 178.05078 L 337.46094 214.50195 L 334.33594 219.38086 L 356.36719 219.38086 L 364.75391 188.74219 L 365.4043 155.66211 L 358.03711 123.4043 L 343.22852 93.804688 L 326.49219 74.191406 L 306.87891 57.455078 L 281.01367 43.957031 L 255.71484 36.992188 z M 405.71484 49.380859 L 522.46484 49.380859 L 405.71484 49.380859 z "
       id="path3831"
       transform="matrix(0.26458333,0,0,0.26458333,-138.33929,86.763245)" />
  </g>
</svg>
