<?xml version="1.0" encoding="utf-8"?>
<!-- Generator: Adobe Illustrator 22.1.0, SVG Export Plug-In . SVG Version: 6.00 Build 0)  -->
<svg version="1.1" id="Layer_1" xmlns="http://www.w3.org/2000/svg" xmlns:xlink="http://www.w3.org/1999/xlink" x="0px" y="0px"
	 viewBox="0 0 36 36" style="enable-background:new 0 0 36 36;" xml:space="preserve">
<style type="text/css">
	.st0{fill:#FFFFFF;}
</style>
<rect y="0" width="36" height="36"/>
<g>
	<path class="st0" d="M36,17.7c-0.1,5.5-2.1,10-6.1,13.7c-2,1.9-4.4,3.2-7.1,4c-0.9,0.3-1.9,0.4-2.9,0.5c-0.6,0-1.2,0.1-1.8,0.1
		c-1.7,0.1-3.4-0.2-5-0.7C11.4,34.7,9.7,34,8.2,33c-0.8-0.5-1.5-1.2-2.3-1.8c-1.4-1.3-2.6-2.7-3.5-4.4c-1-1.9-1.8-3.9-2.2-6.1
		C0,19.5-0.1,18.3,0.1,17c0.3-3.6,1.4-6.9,3.6-9.8c2.2-3,5.1-5.1,8.7-6.3c1.3-0.4,2.6-0.7,4-0.9c1-0.1,2-0.1,3.1-0.1
		c2.9,0.2,5.5,1.1,8,2.5c4.2,2.5,6.8,6.3,8.1,11c0.3,1,0.4,1.9,0.5,2.9C36,16.9,36,17.4,36,17.7z M18.1,35.5c1.2,0,2.5-0.1,3.7-0.4
		c4.3-1,7.8-3.2,10.4-6.8c2.2-3,3.4-6.4,3.4-10.1c0-1.1-0.1-2.1-0.2-3.2c-0.3-1.5-0.7-3-1.4-4.4c-1.6-3.1-3.7-5.7-6.7-7.5
		c-3.3-2-6.8-2.8-10.6-2.5c-1.2,0.1-2.4,0.3-3.5,0.6c-2.5,0.7-4.8,1.9-6.7,3.7c-3.3,3.1-5.3,6.8-5.8,11.3c-0.2,1.5-0.1,3,0.1,4.5
		c0.3,1.8,1,3.6,1.8,5.2c1.2,2.4,2.9,4.3,5.1,5.9C10.6,34.2,14.1,35.4,18.1,35.5z"/>
	<path class="st0" d="M18.1,34.9c-1.9,0-3.7-0.3-5.4-0.9c-3.5-1.2-6.4-3.3-8.5-6.3c-1.1-1.5-1.8-3.3-2.4-5.1
		c-0.3-0.8-0.5-1.7-0.6-2.6C1,19,1,18,1.1,17c0.1-1.3,0.3-2.6,0.7-3.9C3,8.6,6.7,4.2,11.8,2.2c1.4-0.5,2.8-0.9,4.2-1.1
		C16.7,1.1,17.3,1,18,1c0.6,0,1.2,0,1.8,0.1c1.3,0.2,2.6,0.5,3.9,0.9c5.4,1.8,9.2,6.4,10.6,11c0.4,1.3,0.6,2.7,0.7,4.1
		c0.2,4.4-1.2,8.3-4,11.7c-2.2,2.7-5.1,4.5-8.4,5.5c-0.9,0.3-1.9,0.5-2.9,0.5C19.1,34.9,18.5,34.9,18.1,34.9z M34.7,18
		c0-1.1-0.1-2.3-0.3-3.5c-0.5-2.3-1.4-4.5-2.8-6.4c-2-2.8-4.7-4.8-7.9-5.9c-1.3-0.5-2.6-0.8-4-0.9c-0.7-0.1-1.5-0.1-2.3,0
		c-0.9,0-1.9,0.1-2.8,0.3c-1.6,0.3-3,0.8-4.4,1.6c-3.8,2-6.5,5-8,9c-0.6,1.5-0.9,3.1-1,4.7c-0.1,0.9-0.1,1.9,0,2.8
		c0.1,1,0.3,2,0.6,2.9c1.2,4.1,3.5,7.4,7.2,9.7c2.4,1.5,5,2.4,7.8,2.6c1.4,0.1,2.9,0,4.3-0.3c2-0.4,3.9-1.1,5.7-2.2
		c3.2-2,5.5-4.8,6.8-8.4C34.4,22,34.8,20.1,34.7,18z"/>
	<path class="st0" d="M18.1,4.5c4,0.1,7.4,1.6,10.1,4.6c1.7,2,2.8,4.3,3.2,6.9c0.2,1.2,0.2,2.3,0.1,3.5c-0.2,2.4-1.2,4.6-2.6,6.5
		c-1.9,2.7-4.6,4.4-7.8,5.2c-1,0.2-2,0.4-3,0.4c-2.8,0-5.4-0.9-7.7-2.6c-3-2.2-4.7-5.1-5.5-8.6c-0.2-1.1-0.3-2.1-0.2-3.2
		c0.2-2.8,1.2-5.3,2.9-7.6c2-2.7,4.8-4.2,8-4.9C16.4,4.5,17.2,4.5,18.1,4.5z M31.3,18.4C31.3,18.4,31.3,18.4,31.3,18.4
		c0-0.6,0-1.3-0.1-1.9c-0.1-1.3-0.5-2.6-1-3.9c-0.5-1.2-1.3-2.3-2.2-3.4c-0.9-1-1.9-1.9-3-2.6c-1.8-1.1-3.7-1.7-5.7-1.9
		c-1.2-0.1-2.5-0.1-3.7,0.1c-2.1,0.4-4,1.3-5.7,2.6C7.8,9,6.3,11,5.5,13.5c-0.5,1.4-0.8,2.9-0.8,4.4c-0.1,1.3,0.2,2.6,0.6,3.9
		c1,2.9,2.6,5.4,5.1,7.2c2.9,2.1,6.1,2.9,9.7,2.4c1.6-0.3,3.1-0.8,4.5-1.6c2.1-1.2,3.7-2.9,4.9-4.9C30.6,22.8,31.3,20.7,31.3,18.4z"
		/>
	<path class="st0" d="M3.9,18.8c0,0.2,0,0.3,0,0.5c-0.5-0.2-1-0.1-1.5-0.1c-0.1,0-0.2,0.1-0.3,0.2c-0.1-0.1-0.1-0.5,0-0.7
		c0.3-0.3,0.6-0.6,1-0.9c0,0,0.1-0.1,0.1-0.1c0.1-0.1,0-0.2-0.1-0.2c-0.3,0-0.6,0-0.8,0c-0.1,0-0.1,0.1-0.2,0.1c0,0-0.1,0-0.1,0.1
		c0,0-0.1-0.1-0.1-0.1c0-0.1,0-0.3,0-0.4c0.3,0.3,0.6,0.2,0.9,0.2c0.3,0,0.5,0,0.8,0c0.1,0,0.2,0,0.2,0.1c0,0.1,0,0.3,0,0.4
		c-0.1,0.1-0.2,0.2-0.3,0.4c-0.2,0.2-0.4,0.4-0.7,0.6c0,0-0.1,0.1-0.1,0.2c0.1,0,0.1,0.1,0.2,0.1c0.2,0,0.4,0,0.6,0
		C3.6,19,3.8,18.9,3.9,18.8z"/>
	<path class="st0" d="M5.2,8.2C5.3,8,5.4,7.9,5.6,7.7c0.2,0.5,1.2,1.2,1.5,1.2C6.9,9.1,6.8,9.3,6.6,9.4C6.6,9.1,6.3,9,6.1,8.9
		c-0.1,0-0.2,0-0.2,0c0,0-0.1,0.1-0.1,0.1C5.7,9.2,5.5,9.4,5.6,9.6C5.7,9.8,5.9,10,6.3,10c-0.1,0.2-0.2,0.4-0.4,0.6
		c-0.1-0.3-1.2-1-1.6-1.1c0.1-0.2,0.2-0.4,0.3-0.5C4.8,9.1,5,9.2,5.2,9.3c0.1,0,0.2,0,0.3,0C5.6,9.2,5.7,9,5.8,8.8
		c0.1-0.1,0.1-0.2,0-0.3C5.6,8.4,5.4,8.3,5.2,8.2z"/>
	<path class="st0" d="M26.7,4.3c0.1,0.1,0.2,0.1,0.4,0.2c-0.5,0.3-0.7,0.8-1,1.3c0,0-0.1,0.1-0.1,0.2C26,6,25.9,6.1,25.9,6.1
		c-0.1-0.1-0.2-0.1-0.2-0.2c-0.1-0.4-0.2-0.9-0.3-1.3c0,0,0-0.1,0-0.1c0,0,0-0.1-0.1-0.1c0,0-0.1,0-0.1,0.1C25,4.7,24.9,5,24.7,5.2
		c0,0.1,0,0.2,0,0.3c-0.2-0.1-0.3-0.2-0.4-0.3c0,0,0,0,0,0c0.2,0,0.3-0.1,0.4-0.3c0.2-0.3,0.3-0.6,0.5-0.9c0.1-0.2,0.2-0.3,0-0.5
		c0.2,0,0.5,0.1,0.6,0.4c0.1,0.4,0.2,0.9,0.3,1.3C26,5.3,26,5.3,26,5.4c0.1,0,0.1-0.1,0.2-0.1c0.1-0.2,0.2-0.3,0.3-0.5
		C26.6,4.6,26.6,4.5,26.7,4.3z"/>
	<path class="st0" d="M30.9,12c-0.3-0.3-0.3-0.5-0.2-0.8c0.1-0.2,0.2-0.3,0.2-0.5c0-0.1,0-0.2,0-0.3c0-0.1-0.2,0-0.3,0
		c-0.3,0.1-0.3,0.2-0.4,0.4c-0.1-0.2-0.2-0.4-0.3-0.6c0,0,0,0,0,0c0.3,0.1,0.5-0.1,0.7-0.2c0.2-0.1,0.4-0.2,0.5-0.3
		c0.2-0.1,0.4-0.2,0.4-0.5c0.1,0.1,0.1,0.1,0.2,0.2c0.2,0.4,0.4,0.7,0.5,1.1c0.1,0.3,0,0.7-0.3,0.8c-0.1,0-0.3,0-0.4-0.1
		c-0.3-0.1-0.3-0.2-0.4,0.1C30.9,11.5,30.8,11.7,30.9,12z M32.1,10.5c-0.1-0.1-0.2-0.4-0.3-0.6c0,0-0.2-0.1-0.2,0
		c-0.1,0.1-0.3,0.1-0.4,0.2c0,0-0.1,0.1-0.1,0.2c0,0.2,0.3,0.5,0.5,0.6C31.8,10.9,32.1,10.8,32.1,10.5z"/>
	<path class="st0" d="M4.5,13.8c-0.1,0.2-0.1,0.4-0.1,0.6c-0.1-0.1-0.3-0.2-0.4-0.2c-0.4-0.1-0.7-0.2-1.1-0.3c-0.1,0-0.2,0-0.4,0.1
		c0,0,0-0.1,0-0.1c0.1-0.4,0.3-0.8,0.4-1.2c0.1-0.2,0.3-0.3,0.5-0.3c0.2,0,0.4,0.1,0.4,0.4C3.9,13,3.9,13,4.2,12.9
		c0.3-0.1,0.5-0.1,0.7-0.4c0,0.3-0.1,0.6-0.4,0.7c-0.2,0.1-0.3,0.1-0.5,0.2c-0.1,0-0.1,0.1-0.2,0.1c-0.1,0.1-0.1,0.2,0,0.3
		C4,13.9,4.2,14,4.5,13.8z M2.8,13.3C2.8,13.3,2.8,13.3,2.8,13.3C2.8,13.4,2.8,13.4,2.8,13.3c0.1,0.3,0.3,0.2,0.5,0.3
		c0.1,0,0.2,0,0.3,0c0.2-0.2,0.2-0.7,0-0.9c-0.2-0.1-0.4-0.2-0.5,0C2.9,12.9,2.8,13.1,2.8,13.3z"/>
	<path class="st0" d="M17.9,3.7c-0.2,0.1-0.4,0-0.6-0.1c-0.1-0.1-0.3-0.3-0.4-0.5c0-0.1-0.1-0.1-0.2-0.1c-0.2-0.1-0.3,0-0.3,0.2
		c0,0.2,0,0.4,0.2,0.6c-0.2,0-0.4,0-0.6,0.1c0.2-0.4,0.1-0.7,0-1c0-0.1,0-0.3-0.1-0.4c0-0.1,0-0.3-0.2-0.3c0,0-0.1-0.1,0-0.1
		c0,0,0-0.1,0.1-0.1c0.4,0,0.9-0.1,1.3-0.1c0.3,0,0.5,0.2,0.5,0.4c0.1,0.2,0,0.4-0.3,0.6c-0.2,0.1-0.2,0.2-0.1,0.4
		C17.5,3.4,17.7,3.6,17.9,3.7z M16.7,2.8c0.2,0,0.3,0,0.5-0.2c0.1-0.1,0.1-0.3,0.1-0.5C17.2,2,17.1,2,16.9,2c-0.1,0-0.2,0-0.4,0
		c-0.2,0-0.2,0.1-0.2,0.3c0,0.1,0,0.2,0,0.2C16.4,2.8,16.4,2.8,16.7,2.8z"/>
	<path class="st0" d="M4.1,15.7c0,0.6-0.4,1.1-1.1,1c-0.6,0-1-0.5-0.9-1.1c0-0.6,0.4-1,1-1C3.7,14.7,4.1,15.1,4.1,15.7z M3.3,16.3
		c0,0,0.1,0,0.1,0c0.3,0,0.5-0.2,0.5-0.4c0-0.3-0.1-0.5-0.4-0.6c-0.3-0.1-0.6-0.2-0.9-0.1c-0.4,0.1-0.6,0.5-0.3,0.8
		C2.6,16.3,2.9,16.3,3.3,16.3z"/>
	<path class="st0" d="M30.9,9c0.1-0.4-0.2-0.6-0.4-0.9c0,0-0.1-0.1-0.1-0.1C30.3,8,30,8.2,30,8.4c0,0.1,0.2,0.4,0.3,0.4
		c0,0,0.1,0,0.2,0C30.3,8.9,30.2,9,30.1,9C30.1,8.9,30,8.8,30,8.6c0,0,0-0.1-0.1-0.1c-0.2-0.2-0.3,0.1-0.5,0.1
		c-0.1,0.1-0.3,0.2-0.2,0.4c0.1,0.1,0.1,0.2,0.2,0.3c0.1,0.2,0.2,0.3,0.4,0.3c0,0,0.1,0,0.1,0c-0.1,0.2-0.4,0.2-0.5,0
		c-0.2-0.2-0.3-0.5-0.5-0.7c-0.1-0.1-0.1-0.2-0.2-0.3c0-0.1-0.1-0.1-0.1-0.2c0.2-0.1,0.3-0.2,0.4-0.2c0.2-0.2,0.5-0.4,0.7-0.6
		C29.9,7.7,30,7.6,30,7.5c0.1-0.1,0.1-0.1,0.2,0c0.3,0.3,0.5,0.7,0.8,1C31.2,8.7,31.2,8.8,30.9,9z"/>
	<path class="st0" d="M19.9,2c0.2,0,0.4,0,0.5,0.1c0,0,0,0,0,0.1c-0.3,0-0.3,0.2-0.3,0.4c0,0.4-0.1,0.7-0.1,1.1c0,0.1,0,0.2,0,0.4
		c-0.1-0.1-0.2-0.1-0.3-0.2c-0.3-0.3-0.6-0.7-0.8-1c-0.1-0.1-0.2-0.1-0.2-0.2c0,0.1-0.1,0.2-0.1,0.3c0,0.1,0,0.2,0,0.3
		c0,0.4,0,0.4,0.2,0.7c-0.2,0-0.3,0-0.5-0.1c0,0-0.1-0.1,0-0.1c0.2-0.2,0.1-0.5,0.2-0.8c0-0.1,0-0.3,0-0.5c0-0.2,0-0.4-0.2-0.5
		c0.2-0.1,0.5-0.1,0.6,0.1c0.3,0.4,0.6,0.8,0.9,1.2c0,0.1,0.1,0.1,0.2,0.1C19.9,2.9,20.1,2.4,19.9,2z"/>
	<path class="st0" d="M31.5,12.3c0,0.1-0.1,0.1-0.1,0.2c-0.1,0.3-0.1,0.6,0,0.8c0.1,0.1,0.2,0.2,0.4,0.1c0.2-0.1,0.2-0.2,0.2-0.3
		c0-0.3,0-0.6,0-0.8c0-0.3,0.3-0.5,0.5-0.5c0.3,0,0.5,0.1,0.6,0.4c0.1,0.2,0.1,0.4,0.1,0.6c0,0,0,0.1,0,0.1c0,0.1,0.1,0.2,0,0.2
		c-0.1,0.1-0.2,0.1-0.3,0.1c0,0,0,0,0-0.1c0,0,0-0.1,0.1-0.1c0.2-0.3,0.2-0.7-0.1-0.9c-0.1-0.1-0.2-0.1-0.2-0.1
		c-0.1,0-0.2,0.1-0.2,0.2c0,0.1,0,0.3,0,0.4c0,0.2,0,0.3,0,0.5c0,0.3-0.2,0.5-0.5,0.5c-0.3,0-0.5,0-0.6-0.3
		c-0.1-0.3-0.2-0.6-0.2-0.9C31.1,12.3,31.3,12.2,31.5,12.3z"/>
	<path class="st0" d="M34,19c0,0.3,0,0.4-0.1,0.5c-0.2-0.4-0.5-0.6-0.8-0.8c-0.3-0.3-0.7-0.3-1,0c0,0,0,0-0.1,0c0-0.3,0-0.5,0-0.8
		c0.1,0,0.2,0.1,0.3,0.1c0.3,0,0.6,0,0.8-0.2c0.2-0.1,0.3-0.2,0.5-0.4c0.1-0.1,0.2-0.2,0.3-0.3c0,0.2,0,0.4,0,0.7c0,0,0,0.1-0.1,0.1
		c-0.3,0-0.4,0.3-0.6,0.4c-0.1,0.1-0.1,0.2,0,0.3c0.1,0.1,0.3,0.3,0.4,0.4C33.8,19,33.9,19,34,19z"/>
	<path class="st0" d="M14.7,32.1c-0.2,0.2-0.5,1.1-0.4,1.4c-0.2,0-0.3-0.1-0.4-0.1c0.1-0.3,0.2-0.6,0.3-0.8c0,0,0-0.1,0-0.1
		c0,0-0.1,0-0.1,0c-0.2,0.2-0.4,0.4-0.6,0.6c0,0-0.1,0.1-0.2,0.2c-0.2-0.4-0.1-0.8-0.3-1.1c-0.2,0.1-0.4,0.6-0.3,0.9
		c-0.1-0.1-0.3-0.1-0.5-0.2c0.4-0.1,0.4-0.4,0.5-0.7c0.1-0.2,0.3-0.5,0.1-0.8c0.3,0,0.5,0.2,0.5,0.4c0,0.2,0.1,0.5,0.2,0.7
		c0,0.2,0.2,0.2,0.3,0.1c0.2-0.2,0.3-0.3,0.5-0.5C14.3,32,14.5,32,14.7,32.1z"/>
	<path class="st0" d="M11.3,3.8c-0.3-0.2-0.5-0.2-0.7,0c-0.1,0-0.1,0.1-0.2,0.1c0,0.1-0.1,0.2-0.1,0.3c0,0.1,0.2,0.1,0.3,0.1
		c0.2,0,0.4-0.1,0.6-0.1c0.4-0.1,0.6,0.1,0.7,0.4c0.1,0.2,0,0.6-0.3,0.7c-0.2,0.1-0.4,0.2-0.5,0.3c-0.3,0.1-0.4,0-0.5-0.3
		c0.1,0,0.2,0,0.3,0.1c0.3,0.1,0.5,0,0.7-0.2c0.1-0.1,0.2-0.2,0.1-0.4c-0.1-0.1-0.2-0.2-0.4-0.2c-0.1,0-0.3,0.1-0.4,0.1
		c-0.1,0-0.3,0-0.5,0c-0.2,0-0.3-0.2-0.4-0.3c0-0.2,0-0.4,0.2-0.5c0.2-0.1,0.4-0.2,0.5-0.3c0.1,0,0.2-0.1,0.3-0.1c0.1,0,0.1,0,0.2,0
		C11.2,3.5,11.3,3.6,11.3,3.8C11.3,3.7,11.3,3.8,11.3,3.8z"/>
	<path class="st0" d="M7.3,6.9C7.4,7,7.5,7.1,7.5,7.1C7.4,7.3,7.2,7.4,7.1,7.5C7,7.5,7,7.6,7.1,7.7C7.2,7.8,7.3,7.9,7.4,8
		c0.1,0.1,0.2,0.1,0.3,0C7.8,7.9,7.9,7.8,8,7.7C8,7.6,8.1,7.5,8.1,7.4c0-0.1,0-0.2,0-0.2c0.3,0.1,0.3,0.3,0.1,0.5
		C7.9,7.9,7.7,8.2,7.4,8.6c0,0-0.1,0.1-0.2,0.1C7.3,8.4,7,8.2,6.8,8.1C6.7,7.9,6.5,7.7,6.3,7.6C6.2,7.5,6.1,7.4,5.9,7.3
		c0,0,0,0,0-0.1c0.3-0.3,0.6-0.7,0.9-1C7,6.1,7.2,6.1,7.4,6.4c-0.1,0-0.1,0-0.1,0C7,6.4,6.8,6.5,6.7,6.7c0,0-0.1,0.1-0.1,0.1
		C6.4,7,6.4,7.3,6.8,7.4c0.1,0,0.4-0.2,0.4-0.3C7.2,7,7.2,7,7.3,6.9C7.3,6.9,7.3,6.9,7.3,6.9z"/>
	<path class="st0" d="M28.3,5.5c0.2,0.2,0.4,0.3,0.5,0.4c-0.1,0.2-0.2,0.3-0.2,0.4c-0.1,0.3-0.2,0.5-0.2,0.8c0,0.1,0,0.2,0,0.2
		c0.1,0,0.1,0,0.2,0c0.3-0.1,0.5-0.2,0.8-0.3c0.1,0,0.2-0.1,0.3-0.3C29.7,6.9,29.8,7,30,7.1c-0.7,0.1-1.2,0.5-1.8,0.7
		c-0.1,0-0.2,0-0.3,0c-0.1,0,0-0.2,0-0.3c0.2-0.5,0.3-1.1,0.5-1.6C28.3,5.8,28.3,5.7,28.3,5.5z"/>
	<path class="st0" d="M24.3,3.1c0.2,0.1,0.3,0.1,0.5,0.2c0,0,0,0,0,0c-0.3,0-0.3,0.3-0.4,0.5C24.3,4,24.2,4.2,24,4.4
		c-0.2,0.3-0.5,0.4-0.9,0.3c0,0,0,0,0,0c-0.7-0.2-0.9-0.6-0.6-1.3c0.1-0.3,0.2-0.6,0.3-1c0.2,0.1,0.4,0.2,0.6,0.2
		c-0.1,0.1-0.2,0.2-0.3,0.4C23,3.4,22.9,3.7,22.8,4c0,0.2,0.1,0.4,0.3,0.5c0.2,0.1,0.5,0.1,0.6-0.1c0.2-0.4,0.4-0.7,0.6-1.1
		C24.4,3.3,24.3,3.2,24.3,3.1z"/>
	<path class="st0" d="M10.4,5.9C10.2,6,10,6.2,9.9,6.3C9.8,6.2,9.7,6.1,9.6,6C9.4,5.8,9.4,5.9,9.2,6C9.1,6.1,9,6.2,8.9,6.3
		C8.6,6.5,8.7,6.8,9,6.9C8.9,7,8.8,7.1,8.7,7.2c0-0.6-0.2-1.2-0.3-1.8c0-0.1,0-0.1-0.1-0.1c-0.2-0.1-0.1-0.2,0-0.3
		c0.3-0.2,0.3-0.2,0.6,0c0.3,0.2,0.7,0.4,1,0.6C10,5.7,10.2,5.8,10.4,5.9z M8.5,5.4c0,0.3,0.1,0.5,0.1,0.6c0,0.1,0.1,0.1,0.2,0.1
		C8.9,6.1,9,6,9.1,5.9c0.1-0.1,0.1-0.2,0-0.2C9,5.6,8.8,5.5,8.7,5.4C8.6,5.4,8.5,5.4,8.5,5.4z"/>
	<path class="st0" d="M15.3,2.3c-0.3-0.2-0.5-0.1-0.8,0c-0.1,0-0.2,0.1-0.2,0.2c0,0,0,0.1,0,0.1c0.1,0.1,0.1,0.3,0.2,0.4
		c0.1,0.1,0.4,0,0.5-0.2c0,0,0,0,0.1-0.1c0,0.2,0.1,0.3,0.1,0.4c-0.2,0-0.4,0-0.5,0c-0.1,0-0.2,0.1-0.2,0.2c0,0.2,0,0.4,0.1,0.5
		c0,0.1,0.1,0.1,0.2,0.1c0.3,0,0.6,0,0.7-0.4c0.2,0.2,0.1,0.4-0.1,0.4c-0.4,0.1-0.7,0.2-1.1,0.3c0,0-0.1,0-0.2,0c0,0,0-0.1,0-0.1
		c0-0.1,0-0.1,0-0.2c-0.1-0.4-0.1-0.7-0.2-1.1c0-0.1-0.1-0.3-0.2-0.4c0,0,0,0,0.1,0c0.4-0.1,0.9-0.2,1.3-0.3
		C15.3,2,15.3,2.2,15.3,2.3z"/>
	<path class="st0" d="M32,15.7c0.2,0.4,0.5,0.2,0.7,0.1c0.3,0,0.5-0.1,0.8-0.1c0.1,0,0.2,0,0.3-0.2c0-0.2,0-0.3-0.2-0.4
		c-0.1,0-0.1-0.1-0.2-0.1c0,0,0,0,0-0.1c0.1,0,0.2-0.1,0.3-0.1c0,0,0.1,0.1,0.1,0.1c0.1,0.5,0.1,1,0.2,1.4c0,0.3-0.1,0.4-0.4,0.3
		c0-0.1,0.1-0.1,0.1-0.2c0-0.1,0.1-0.2,0.1-0.3c0-0.1-0.1-0.2-0.2-0.2c-0.4,0.1-0.8,0.1-1.2,0.2c-0.1,0-0.2,0.2-0.3,0.3
		C32,16.4,31.9,16.1,32,15.7C31.9,15.8,31.9,15.8,32,15.7z"/>
	<path class="st0" d="M3.2,23.8c0.5-0.1,1-0.3,1.4-0.6C4.8,23.4,5,23.7,5.1,24c0.1,0.3-0.1,0.5-0.5,0.4c0,0.1,0,0.2,0,0.3
		c0,0.2-0.1,0.3-0.3,0.3c-0.2,0-0.4,0-0.5-0.1C3.6,24.5,3.4,24.2,3.2,23.8z M4.1,23.9C4,24,3.9,24,3.8,24.1
		c-0.2,0.1-0.3,0.2-0.1,0.4c0,0.1,0.1,0.1,0.1,0.1c0.2,0.1,0.4,0.1,0.5-0.1c0.1-0.1,0-0.5-0.1-0.6C4.2,23.9,4.2,23.9,4.1,23.9z
		 M4.9,24.1c0-0.2-0.1-0.4-0.2-0.4c-0.2,0-0.3,0.1-0.3,0.2c0,0.2,0.1,0.3,0.3,0.3C4.8,24.2,4.9,24.2,4.9,24.1z"/>
	<path class="st0" d="M5.5,11.3c-0.1,0.2-0.2,0.4-0.3,0.6c-0.4-0.4-0.8-0.6-1.3-0.8c-0.1-0.1-0.2,0-0.3,0.1
		c-0.1,0.2-0.1,0.2-0.1,0.6c-0.2,0-0.4-0.1-0.3-0.3c0.2-0.5,0.5-1,0.8-1.5c0.1-0.2,0.3-0.1,0.5,0.1c-0.1,0-0.1,0-0.2,0.1
		c-0.1,0-0.1,0-0.2,0.1c-0.3,0.2-0.2,0.4,0,0.5c0.3,0.2,0.6,0.4,0.9,0.5C5.2,11.3,5.3,11.3,5.5,11.3z"/>
	<path class="st0" d="M11.7,3.6c-0.1-0.3-0.1-0.5,0.2-0.6c0.4-0.2,0.8-0.3,1.2-0.4c0.2-0.1,0.3,0.1,0.3,0.3c-0.1,0-0.1,0-0.2,0
		c-0.1,0-0.2,0-0.3,0c-0.3,0-0.3,0.1-0.2,0.4c0.1,0.3,0.2,0.7,0.4,1c0,0.1,0.1,0.2,0.3,0.3c-0.2,0.1-0.4,0.2-0.6,0.2
		c0-0.6-0.3-1-0.5-1.5c0-0.1-0.2-0.2-0.3-0.1c-0.1,0.1-0.2,0.2-0.3,0.3C11.8,3.4,11.8,3.5,11.7,3.6z"/>
	<path class="st0" d="M23.1,31.5c0.2-0.1,0.3-0.1,0.4-0.2c0.1,0.2,0.1,0.3,0.2,0.5c0,0,0.1,0.1,0.1,0.1c0.2-0.1,0.3-0.1,0.5-0.2
		c0,0,0-0.1,0-0.1c-0.1-0.2-0.2-0.3-0.3-0.5c0.1-0.1,0.2-0.1,0.3-0.2c0.1,0.3,0.2,0.5,0.3,0.7c0.1,0.2,0.2,0.5,0.5,0.6
		c-0.1,0.1-0.3,0.2-0.4,0.2c-0.1-0.2-0.2-0.4-0.3-0.5c-0.1-0.1-0.2-0.1-0.3-0.1c-0.1,0-0.2,0.1-0.3,0.2c0,0-0.1,0.1-0.1,0.1
		c0.1,0.2,0.2,0.3,0.3,0.4c0.1,0.1,0.1,0.1,0,0.1c-0.1,0.1-0.3,0.1-0.5,0.2C23.7,32.6,23.4,31.7,23.1,31.5z"/>
	<path class="st0" d="M9.6,31.6c-0.1-0.1-0.2-0.1-0.3-0.2c0.3-0.2,0.8-0.9,0.8-1.2c0.2,0,0.3,0.1,0.4,0.3c0.1,0.3,0.1,0.5,0.2,0.8
		c0,0,0,0.1,0,0.1c0,0.1,0.1,0.1,0.1,0.2c0.1-0.1,0.1-0.1,0.2-0.2c0.1-0.2,0.3-0.4,0.2-0.6c0.1,0.1,0.2,0.1,0.3,0.2
		c-0.2,0.3-0.3,0.6-0.5,0.9c-0.1,0.1-0.1,0.2-0.2,0.3c-0.1,0.1-0.2,0.1-0.3-0.1c-0.1-0.3-0.1-0.5-0.2-0.8c0-0.1,0-0.3-0.1-0.4
		c0-0.1-0.1-0.1-0.1-0.1c0,0-0.1,0-0.1,0.1c-0.1,0.2-0.2,0.4-0.3,0.5C9.6,31.4,9.6,31.5,9.6,31.6z"/>
	<path class="st0" d="M5.2,25C5.6,25,6,25.5,6,26c0,0.4-0.4,0.8-0.8,0.8c-0.5,0-0.9-0.4-0.9-0.9C4.4,25.4,4.7,25,5.2,25z M5.8,25.7
		c0-0.3-0.2-0.4-0.4-0.4c-0.3,0-0.7,0.3-0.8,0.6c-0.1,0.3,0,0.5,0.3,0.6C5.3,26.6,5.8,26.2,5.8,25.7z"/>
	<path class="st0" d="M33.5,13.7c0.1,0.3,0.3,0.5,0.2,0.9c-0.2-0.2-0.4-0.1-0.5-0.1c-0.3,0.1-0.6,0.2-0.9,0.3
		c-0.2,0.1-0.4,0.1-0.4,0.3c-0.1-0.1-0.2-0.7-0.2-0.8c0.2,0.1,0.3,0.1,0.5,0c0.3-0.1,0.6-0.2,0.9-0.3C33.2,14,33.4,14,33.5,13.7z"/>
	<path class="st0" d="M8.7,29.2c0.5,0,0.9,0.4,0.9,0.9c0,0.4-0.4,0.8-0.7,0.8c-0.5,0-0.9-0.4-0.9-0.9C7.9,29.5,8.2,29.2,8.7,29.2z
		 M8.1,30.2c0,0.4,0.3,0.6,0.6,0.4c0.3-0.1,0.6-0.6,0.5-1c0-0.2-0.3-0.4-0.5-0.3C8.5,29.4,8.1,29.9,8.1,30.2z"/>
	<path class="st0" d="M32,25.4c-0.1,0-0.2-0.1-0.3-0.2c0,0,0,0,0-0.1c0.1,0,0.1,0,0.2-0.1c0.1-0.1,0.3-0.1,0.4-0.2
		c0.1-0.1,0.1-0.3,0-0.4c-0.1-0.1-0.2,0-0.3,0c-0.1,0.1-0.2,0.1-0.3,0.2c-0.1,0-0.1,0.1-0.2,0.1c-0.2,0.1-0.3,0.2-0.5,0
		c-0.1-0.1-0.2-0.4-0.1-0.6c0.1-0.1,0.2-0.3,0.3-0.4c0.1-0.1,0.1-0.2,0.2-0.3c0.1,0,0.2,0.1,0.3,0.2c-0.1,0-0.2,0-0.2,0.1
		c-0.2,0-0.4,0.2-0.5,0.4c0,0,0,0.2,0,0.2c0.1,0,0.2,0.1,0.3,0c0.2-0.1,0.3-0.2,0.5-0.3c0.2-0.1,0.3-0.1,0.5-0.1
		c0.3,0.1,0.4,0.5,0.2,0.7c0,0.1-0.1,0.1-0.1,0.2C32.3,25.1,32.2,25.2,32,25.4z"/>
	<path class="st0" d="M6.9,27.5c-0.1-0.2-0.1-0.4-0.2-0.6c-0.1-0.1-0.1-0.2-0.3-0.2c-0.1,0.1-0.1,0.2-0.1,0.3c0,0.2,0.1,0.3,0.1,0.5
		c0,0.1,0,0.2,0,0.3c0,0.2-0.1,0.3-0.3,0.4c-0.2,0-0.4,0-0.6-0.2c-0.1-0.1-0.1-0.2-0.2-0.3c-0.1-0.1-0.1-0.2-0.2-0.4
		c0.1-0.1,0.1-0.2,0.2-0.2c0,0,0,0,0.1,0c0,0.1,0,0.2,0,0.3c0,0.2,0.1,0.3,0.2,0.5C5.7,27.9,5.9,28,6,28c0.1,0,0.1-0.2,0.1-0.2
		c0-0.1-0.1-0.2-0.1-0.4c-0.1-0.3,0-0.6,0.2-0.7c0.2-0.1,0.4-0.1,0.5,0.1c0.1,0.2,0.2,0.3,0.3,0.5C7.1,27.3,7,27.4,6.9,27.5z"/>
	<path class="st0" d="M26.9,6.9c-0.2-0.1-0.4-0.2-0.5-0.3c0.5-0.5,0.9-1,1.2-1.7C27.7,5,27.9,5.1,28,5.2c0.1,0.1,0.1,0.1,0,0.2
		c-0.1,0.1-0.2,0.1-0.2,0.2c-0.2,0.3-0.5,0.7-0.7,1C27,6.7,27,6.8,26.9,6.9z"/>
	<path class="st0" d="M29.2,28.9c0.1,0.1,0.1,0.1,0.2,0.2c0,0,0,0,0.1,0.1c-0.3,0.3-0.6,0.6-1,0.9c-0.2-0.5-0.5-0.9-1-1.2
		c0,0,0,0,0-0.1c0.2-0.2,0.5-0.4,0.7-0.7c0.2-0.2,0.3-0.2,0.4,0.1c-0.3-0.1-0.4,0-0.6,0.2c-0.1,0.1-0.1,0.3,0,0.4
		c0.1,0.1,0.2,0.1,0.4-0.1c0,0,0.1-0.1,0.1-0.2c0.1,0.1,0.1,0.1,0.2,0.2c-0.1,0-0.1,0-0.2,0.1c-0.2,0.1-0.2,0.3-0.1,0.4
		c0.1,0.1,0.2,0.2,0.3,0.3C29,29.4,29.3,29.3,29.2,28.9z"/>
	<path class="st0" d="M20.4,33.8c-0.2,0-0.3,0.1-0.4,0.1c0.1-0.5,0.5-1,0.3-1.6c0.2-0.1,0.3-0.1,0.5,0.1c0.2,0.3,0.4,0.6,0.7,0.9
		c0.1,0.1,0.2,0.2,0.3,0.2c-0.2,0.1-0.4,0.1-0.6,0.2c0.1-0.2,0-0.4-0.2-0.5c-0.1-0.1-0.5,0-0.6,0.1C20.2,33.5,20.2,33.7,20.4,33.8z
		 M20.5,33.2c0.1-0.1,0.2-0.1,0.3-0.2c-0.1-0.1-0.2-0.2-0.2-0.3c0,0.1-0.1,0.2-0.1,0.3C20.4,33.1,20.5,33.2,20.5,33.2z"/>
	<path class="st0" d="M27.1,31.1c-0.1-0.1-0.1-0.2-0.2-0.3c0,0,0,0,0,0c0.1,0,0.1,0,0.2,0c0.2,0.1,0.4,0,0.6-0.2
		c0.1-0.1,0.1-0.2,0.1-0.2c0-0.1-0.2-0.1-0.2-0.1c-0.2,0-0.4,0-0.6,0c-0.3,0-0.4-0.1-0.5-0.3c-0.1-0.3,0.1-0.5,0.4-0.6
		c0.1,0,0.3-0.1,0.4-0.2c0,0,0.1,0.1,0.2,0.2c-0.2,0-0.3,0-0.3,0c-0.1,0-0.3,0.1-0.3,0.2c-0.1,0.2,0,0.3,0.2,0.3c0.2,0,0.4,0,0.6,0
		c0.2,0,0.4,0,0.5,0.2c0.1,0.2,0,0.5-0.2,0.6C27.5,30.9,27.4,31,27.1,31.1z"/>
	<path class="st0" d="M17.9,32.5c0,0.1,0,0.2,0,0.4c-0.1-0.1-0.1-0.1-0.2-0.2c-0.2-0.1-0.3-0.2-0.5-0.1c-0.1,0-0.2,0.1-0.2,0.2
		c0,0,0.1,0.1,0.1,0.2c0.2,0.1,0.4,0.2,0.5,0.2c0.2,0.1,0.3,0.2,0.3,0.4c0,0.4-0.3,0.6-0.6,0.5c-0.1,0-0.2-0.1-0.3-0.1
		c-0.1,0-0.2,0-0.3,0c0-0.1,0-0.2,0-0.4c0.1,0.1,0.2,0.2,0.3,0.2c0.1,0.1,0.3,0.2,0.5,0.1c0.1,0,0.2-0.1,0.2-0.2
		c0-0.1-0.1-0.2-0.1-0.2c-0.1-0.1-0.3-0.1-0.4-0.2c-0.1-0.1-0.3-0.2-0.3-0.3c-0.1-0.3,0.1-0.6,0.4-0.6c0.1,0,0.3,0,0.4,0
		C17.7,32.4,17.8,32.5,17.9,32.5z"/>
	<path class="st0" d="M14.6,33.6c0.5-0.4,0.7-0.8,0.9-1.4c0.3,0,0.3,0,0.4,0.4c0.1,0.4,0.2,0.9,0.4,1.3c-0.1,0-0.3,0-0.5-0.1
		c0.1-0.2,0.1-0.5-0.1-0.6c-0.2-0.1-0.4-0.1-0.6-0.1c-0.1,0-0.2,0.3-0.1,0.4C14.9,33.7,14.8,33.7,14.6,33.6z M15.8,33
		c-0.1-0.1-0.1-0.2-0.2-0.3c-0.1,0.1-0.1,0.2-0.2,0.3c0.1,0,0.2,0.1,0.3,0.1C15.6,33.2,15.7,33.1,15.8,33z"/>
	<path class="st0" d="M24.8,30.8C24.8,30.8,24.8,30.7,24.8,30.8c0.2-0.1,0.3-0.2,0.5-0.3c0,0.4,0.2,0.7,0.4,1c0.2,0.3,0.5,0.3,0.6,0
		c0-0.1,0-0.3,0-0.4c-0.1-0.2-0.2-0.4-0.4-0.6c-0.1-0.1-0.2-0.1-0.3-0.2c0.1-0.1,0.2-0.2,0.3-0.2c0.1,0.2,0.1,0.3,0.2,0.5
		c0.1,0.2,0.2,0.4,0.3,0.7c0.1,0.2,0,0.4-0.2,0.5c-0.4,0.3-0.8,0.3-1.1-0.2C25.2,31.2,25.1,30.9,24.8,30.8z"/>
	<path class="st0" d="M18.4,33.7c0.1,0.1,0.2,0.1,0.3,0.2c0.1,0,0.2,0,0.3,0c0.1,0,0.3-0.1,0.3-0.2c0-0.2-0.1-0.2-0.2-0.3
		c-0.1-0.1-0.3-0.1-0.4-0.2c-0.2-0.1-0.3-0.3-0.3-0.5c0-0.2,0.1-0.3,0.3-0.3c0.2,0,0.5,0,0.7,0c0,0,0.1,0.1,0.1,0.1c0,0,0,0.1,0,0.1
		c0,0-0.1,0-0.1,0c-0.2,0-0.3-0.1-0.5-0.1c0,0-0.1,0.1-0.1,0.1c0,0.1,0,0.2,0.1,0.2c0.2,0.1,0.3,0.2,0.5,0.3
		c0.3,0.1,0.4,0.2,0.3,0.5c0,0.2-0.2,0.4-0.5,0.4c-0.1,0-0.2,0-0.3,0c-0.1,0-0.2,0-0.2,0C18.4,34,18.3,33.9,18.4,33.7z"/>
	<path class="st0" d="M7,29.5c-0.2-0.1-0.3-0.3-0.5-0.4c0,0,0,0,0.1-0.1c0.4-0.1,0.6-0.5,0.9-0.8c0.1-0.1-0.1-0.4-0.2-0.4
		c-0.1,0-0.1,0-0.2,0c0.3-0.2,0.4-0.2,0.6,0.1c0.2,0.2,0.4,0.4,0.5,0.6c0.2,0.2,0.2,0.3,0,0.5c0-0.1,0-0.2,0-0.2
		c0-0.1-0.1-0.2-0.1-0.2c-0.1,0-0.2,0-0.2,0.1c-0.2,0.2-0.4,0.4-0.6,0.6C7.1,29.3,7.1,29.4,7,29.5z"/>
	<path class="st0" d="M29.9,26.8c-0.1,0-0.2,0-0.3,0.1c-0.2,0.1-0.2,0.2-0.1,0.3c0.3,0.2,0.5,0.5,0.8,0.7c0.1,0,0.2,0,0.3,0.1
		c-0.1,0.2-0.3,0.3-0.4,0.5c-0.2-0.5-0.6-0.7-0.9-1c-0.1-0.1-0.3,0-0.3,0.2c0,0.1,0,0.2,0,0.3c-0.1-0.2-0.2-0.3-0.1-0.4
		c0.2-0.3,0.4-0.5,0.6-0.8C29.5,26.6,29.6,26.6,29.9,26.8z"/>
	<path class="st0" d="M23,32.7c0.1,0.2,0,0.5-0.2,0.6c-0.5,0.3-1.1-0.1-1.1-0.6c0-0.3,0-0.6,0.3-0.7c0.1-0.1,0.2-0.1,0.3-0.1
		c0.2,0,0.4,0.1,0.5-0.2c0.1,0.2,0.1,0.3,0.2,0.5c-0.2-0.1-0.3-0.1-0.4-0.2c-0.2-0.1-0.3,0-0.4,0.2c-0.2,0.4,0,0.8,0.3,1
		c0.3,0.2,0.5,0.1,0.6-0.2C23,32.9,23,32.8,23,32.7z"/>
	<path class="st0" d="M30,26.5c-0.2-0.1-0.2-0.2-0.1-0.4c0.2-0.3,0.4-0.6,0.6-0.9c0.1-0.2,0.2-0.2,0.4,0c-0.1,0.1-0.2,0.1-0.3,0.2
		c-0.1,0.1-0.1,0.2,0,0.3c0.2,0.2,0.5,0.3,0.8,0.5c0.1,0,0.2,0,0.3,0.1c-0.1,0.2-0.2,0.3-0.3,0.5c-0.1-0.4-0.4-0.4-0.6-0.6
		c-0.1-0.1-0.2-0.1-0.2-0.2c-0.2-0.1-0.2-0.1-0.3,0.1C30.1,26.3,30.1,26.4,30,26.5z"/>
	<path class="st0" d="M11,32.6c0-0.1,0.1-0.2,0.1-0.3c0-0.1,0.1-0.1,0.2-0.1c0.1,0,0.2,0.1,0.2,0.1C11.4,32.5,11.2,32.7,11,32.6z"/>
	<path class="st0" d="M30.8,18.1c-0.1,2.7-0.8,5.3-2.5,7.5c-1.9,2.6-4.5,4.3-7.7,5c-0.8,0.2-1.7,0.3-2.5,0.3c-1.4,0-2.7-0.3-4-0.7
		c-1.7-0.6-3.2-1.5-4.5-2.7c-1.6-1.4-2.7-3.2-3.4-5.2c-0.3-0.9-0.6-1.9-0.7-2.8c-0.1-0.9-0.1-1.7,0-2.6c0.2-2.2,0.9-4.3,2.2-6.1
		c1.8-2.7,4.3-4.5,7.5-5.2c1.2-0.3,2.4-0.4,3.6-0.4c1.8,0.1,3.5,0.6,5.1,1.4c3.1,1.6,5.3,4.1,6.4,7.4c0.3,0.9,0.5,1.9,0.6,2.9
		C30.7,17.2,30.7,17.6,30.8,18.1z M19.1,7.1c0.1,0.2,0.2,0.4,0.3,0.6c0,0,0,0,0.1,0c0-0.1,0-0.3,0-0.4c0,0,0,0,0.1,0.1
		c0.3,0.4,0.3,0.8,0.2,1.2c0,0.2,0,0.2,0.2,0.3c0.1,0,0.2,0,0.4,0.1c0.2,0.1,0.2,0.2,0.1,0.4c0,0.1-0.1,0.2-0.2,0.2
		c-0.2,0-0.2,0.1-0.3,0.2c0,0.1-0.1,0.2-0.1,0.2c-0.2,0.1-0.3,0.3-0.3,0.6c0,0.2,0,0.3,0,0.5c0,0.1,0,0.1-0.1,0.1
		c-0.2,0.1-0.2,0.2-0.2,0.4c0,0.1,0,0.1-0.1,0.2c0,0.1-0.1,0.2-0.1,0.3c0,0.3,0,0.7,0,1c0,0.7,0,1.4-0.1,2c0,0.1,0.1,0.2,0.2,0.2
		c0.2,0,0.3,0.1,0.5,0.1c0.3,0.1,0.3,0,0.3-0.3c-0.1-0.7-0.2-1.4-0.3-2.1c0-0.2-0.1-0.4-0.1-0.6c0,0,0,0,0,0c0,0.1,0.1,0.1,0.1,0.2
		c0.3,0.9,0.5,1.9,0.8,2.8c0,0.2,0.1,0.3,0.3,0.3c0.2,0,0.4,0.1,0.6,0.2c0.1,0,0.2,0,0.2,0c0-0.1,0-0.2,0-0.3c0,0,0,0,0-0.1
		c-0.4-0.9-0.7-1.9-1.1-2.8c-0.2-0.4-0.3-0.8-0.5-1.2c0.4,0.7,0.8,1.5,1.2,2.3c0.4,0.8,0.8,1.5,1.2,2.3c0,0,0,0,0.1,0
		c0-0.1,0-0.1,0-0.2c0-0.3,0.1-0.6,0.2-0.8c0.1-0.1,0.1-0.2,0-0.3c-0.7-1.2-1.5-2.4-2.2-3.6c0-0.1-0.1-0.1-0.1-0.2
		c0,0,0.1,0,0.1-0.1c0,0.1,0.1,0.1,0.1,0.2c0.1,0.1,0.2,0.3,0.3,0.4c0.8,1,1.6,2,2.3,3c0.1,0.1,0.2,0.2,0.4,0.2c0.2,0,0.5,0,0.7,0.1
		c0.4,0.1,0.5,0.3,0.5,0.8c0,0.3,0,0.7,0,1c0,0.1,0,0.3,0.1,0.3c0.3,0.4,0.7,0.9,1,1.3c0,0.1,0.1,0.1,0.2,0.1c0-0.1,0-0.1,0-0.1
		c0.1-0.5,0.1-1.1,0.2-1.6c0-0.3,0-0.5-0.2-0.6c-0.4-0.4-0.8-0.9-1.2-1.3c-1.2-1.3-2.5-2.7-3.7-4c-0.1-0.1-0.1-0.1-0.2-0.2
		c0,0,0,0,0,0c0.1,0.1,0.3,0.2,0.4,0.3c1.9,1.5,3.8,3,5.7,4.5c0.1,0,0.1,0.1,0.2,0.1c0-0.1,0-0.1,0-0.2c0.1-0.4,0.2-0.8,0.4-1.2
		c0.1-0.2,0-0.3-0.1-0.4c-2.1-1.3-4.2-2.6-6.4-3.9c-0.1,0-0.1-0.1-0.2-0.1c0.2,0,0.4,0.1,0.6,0.2c1.4,0.6,2.8,1.2,4.2,1.8
		c1,0.4,2,0.8,2.9,1.2c0.1,0,0.2,0,0.2,0.1c0,0,0,0,0-0.1c-0.2-0.4-0.4-0.7-0.6-1.1c-0.1-0.2-0.3-0.4-0.5-0.5
		c-2.4-0.8-4.8-1.7-7.2-2.5c-0.1,0-0.1,0-0.2-0.1c0.3,0,0.6,0.1,0.9,0.2c1.9,0.5,3.8,1,5.7,1.4c0.1,0,0.1,0,0.2,0c0,0,0,0,0,0
		c0-0.1-0.1-0.1-0.1-0.2c-0.1-0.2-0.3-0.3-0.4-0.5c-0.1-0.1-0.2-0.2-0.4-0.2c-1.5-0.4-3-0.7-4.5-1c-0.4-0.1-0.9-0.2-1.3-0.3
		c1.7,0.2,3.4,0.4,5.1,0.6c0-0.1,0-0.1,0-0.1c0,0,0,0,0,0c-0.3-0.3-0.7-0.6-1.2-0.6c-0.1,0-0.1,0-0.2,0c-0.8-0.1-1.6-0.2-2.4-0.2
		c-0.5-0.1-1-0.1-1.6-0.2c1.2-0.1,2.5,0,3.7-0.1c0-0.1,0-0.1-0.1-0.1c-0.4-0.2-0.8-0.6-1.3-0.5c-0.6,0.1-1.2,0.1-1.7,0.2
		c-0.3,0-0.7,0.1-1,0.1c0,0,0,0,0,0c0.7-0.2,1.5-0.4,2.2-0.5c0,0,0,0,0-0.1C22.1,6,21.7,5.9,21.3,6c-0.5,0.1-1,0.3-1.5,0.5
		c0,0-0.1,0-0.1,0c0,0,0,0,0,0C20.2,6.2,20.6,6,21,5.8c0,0,0-0.1,0-0.1c-0.3,0-0.5-0.2-0.8-0.1c-0.3,0.1-0.5,0.2-0.8,0.3
		c0,0,0,0,0,0c0.2-0.1,0.4-0.3,0.5-0.4c0,0,0,0,0-0.1c-0.2,0-0.4,0-0.6-0.1c-0.3,0-0.4,0.2-0.5,0.3c0-0.1,0-0.2-0.1-0.3
		c-0.1-0.1-0.5-0.1-0.6,0c-0.1,0-0.2-0.1-0.3-0.1c-0.5,0-0.9,0.1-1.4,0.1c-0.1,0-0.1,0.1-0.1,0.2c0,0.1,0.1,0.2,0.1,0.3c0,0,0,0,0,0
		c-0.1-0.1-0.1-0.1-0.2-0.2c-0.2-0.2-0.3-0.2-0.6-0.2c-0.1,0-0.1,0-0.2,0c-0.1,0-0.1,0.1-0.2,0.1c0,0.1,0.1,0.1,0.1,0.2
		c0.2,0.1,0.4,0.3,0.6,0.4c-0.3-0.1-0.6-0.2-0.9-0.3c-0.3-0.2-0.7-0.2-1,0c-0.1,0-0.2,0.1-0.3,0.1c-0.1,0-0.1,0.1-0.1,0.1
		c0.1,0,0.1,0.1,0.2,0.1c0.5,0.2,1,0.3,1.6,0.5c0.1,0,0.2,0.1,0.2,0.1c-0.1,0-0.1,0-0.2,0c-0.7-0.1-1.5-0.2-2.2-0.3
		c-0.2,0-0.4-0.1-0.6,0c-0.5,0.2-0.9,0.5-1.4,0.7c0,0-0.1,0.1-0.1,0.1c0,0,0.1,0,0.1,0.1c0.1,0,0.1,0,0.2,0c1.2,0,2.5,0,3.7,0
		c0.1,0,0.1,0,0.2,0c-0.1,0-0.1,0.1-0.2,0.1c-1.8,0.3-3.6,0.7-5.4,1c-0.1,0-0.2,0.1-0.2,0.1C9.3,9,9,9.3,8.7,9.7
		C8.6,9.7,8.6,9.8,8.5,9.9c0,0,0,0,0,0.1c0.1,0,0.2,0,0.3,0c0.4-0.1,0.7-0.2,1.1-0.3c1.7-0.5,3.4-0.9,5.2-1.4c0.1,0,0.1,0,0.2,0
		c0,0.1-0.1,0.1-0.2,0.1c-2.5,1-5,2-7.5,3c-0.1,0-0.2,0.1-0.3,0.2c-0.2,0.3-0.3,0.6-0.4,0.9c0,0.1,0,0.1,0,0.2c0.1,0,0.1,0,0.2,0
		C7.7,12.3,8.3,12,9,11.7c1.9-0.9,3.7-1.8,5.6-2.7c0.1,0,0.1-0.1,0.2-0.1c0,0.1-0.1,0.1-0.2,0.2c-1.5,1-3,2-4.6,3
		c-0.7,0.5-1.5,0.9-2.2,1.4c-0.1,0.1-0.2,0.2-0.1,0.3c0.1,0.2,0.2,0.4,0.2,0.6C8,14.7,8,14.7,8.2,14.6c2-1.5,4-3,6.1-4.5
		c0.1-0.1,0.2-0.1,0.3-0.2c0,0,0,0,0,0c-0.1,0.1-0.3,0.3-0.4,0.4c-1.6,1.5-3.2,3-4.8,4.5c-0.1,0.1-0.2,0.3-0.1,0.4
		c0.1,0.3,0.2,0.7,0.2,1c0,0.1,0,0.2,0.1,0.3c0.1-0.1,0.1-0.1,0.2-0.2c0.2-0.3,0.4-0.5,0.7-0.8c0.4-0.5,0.8-1,1.3-1.5
		c1.1-1.2,2.1-2.4,3.2-3.6c0.1-0.1,0.1-0.1,0.2-0.2c0,0,0,0,0.1,0c-0.9,1.2-1.7,2.5-2.5,3.7c0.2,0.2,0.4,0.4,0.6,0.6
		c0.1,0.1,0.2,0.1,0.3,0c0.7-1.1,1.3-2.3,2-3.4c0-0.1,0.1-0.1,0.1-0.2c0,0,0,0.1,0,0.1c-0.2,0.5-0.4,1-0.6,1.5
		c-0.4,0.9-0.7,1.7-1.1,2.6c0,0.1,0,0.2,0,0.2c0.1,0,0.1,0,0.2,0c0.3,0,0.5-0.1,0.8-0.1c0.3,0,0.4-0.1,0.4-0.4
		c0.3-1,0.5-2.1,0.8-3.1c0,0,0-0.1,0.1-0.1c0,0.1,0,0.1,0,0.2c-0.1,0.4-0.1,0.9-0.2,1.3c-0.1,0.6-0.1,1.2-0.1,1.8
		c0,0.1,0,0.2,0.2,0.2c0.2,0,0.5-0.1,0.7-0.1c0.1,0,0.2-0.1,0.2-0.2c-0.1-1-0.1-2.1-0.2-3.1c0-0.2-0.2-0.5-0.3-0.7c0,0,0,0-0.1,0
		c-0.1-0.1-0.1-0.2-0.1-0.3c0-0.2,0-0.4,0-0.6c0-0.2-0.1-0.3-0.3-0.4c0,0-0.1-0.1-0.1-0.1c0-0.2-0.2-0.3-0.3-0.3
		c-0.2,0-0.2-0.1-0.3-0.3c0-0.2,0.1-0.3,0.3-0.3c0.1,0,0.2,0,0.2,0C16,8.8,16,8.7,16,8.4c-0.1-0.5,0-0.9,0.4-1.3
		c0,0,0.1-0.1,0.2-0.1c-0.1,0.3-0.1,0.4,0,0.6c0.3-0.3,0.4-0.7,0.1-1.2c0.3,0,0.5,0.2,0.7,0.3c0-0.1,0.1-0.1,0.1-0.2c0,0,0,0,0.1,0
		c-0.1,0.3-0.1,0.5-0.2,0.8c-0.1,0.3-0.1,0.7,0.1,1c0,0.1,0.1,0.1,0.2,0.1c0-0.1,0-0.1,0-0.2c0-0.2,0-0.5,0-0.7
		c0.1-0.3,0.2-0.5,0.3-0.8c0,0,0,0,0,0.1c0.2,0.3,0.3,0.5,0.5,0.8c0,0.1,0.1,0.1,0.2,0.1c0-0.1,0.1-0.1,0.1-0.2
		c0-0.2-0.1-0.4-0.2-0.6c-0.3-0.4-0.7-0.7-1.1-0.9c-0.1,0-0.1,0-0.2,0c0.1,0.2,0.2,0.4,0.3,0.6c-0.2-0.2-0.4-0.5-0.5-0.7
		c0.4,0,0.8,0.2,1.1,0.4c0.3,0.3,0.5,0.5,0.8,0.8c0.1-0.1,0.2-0.3,0.3-0.5C19.1,6.7,19.1,6.9,19.1,7.1C19,7,19,6.9,18.9,6.8
		c-0.2,0.2-0.2,0.4-0.2,0.5c0,0.3-0.1,0.6-0.1,0.8c0,0.1,0,0.2,0.1,0.3c0.1,0.1,0.2,0,0.3-0.1c0.2-0.2,0.3-0.6,0.1-0.9
		C19.1,7.3,19.1,7.2,19.1,7.1z M23.7,23.4c-0.1-0.1-0.2-0.1-0.3-0.2c-0.4-0.2-0.6-0.6-0.5-1.1c0.1-0.7,0.2-1.5,0.2-2.2
		c0-1.2-0.1-2.5-0.2-3.7c0-0.2-0.1-0.3-0.3-0.3c-0.4-0.1-0.8-0.2-1.3-0.3c-0.7-0.2-1.5-0.4-2.3-0.5c-1.1-0.1-2.2,0.1-3.3,0.3
		c-0.7,0.1-1.4,0.2-2.1,0.3c-0.3,0-0.3,0-0.4,0.3c0,0,0,0.1,0,0.1c-0.1,0.8-0.3,1.6-0.4,2.4c-0.1,0.6-0.1,1.1-0.2,1.7
		c-0.1,0.6-0.1,1.2,0,1.8c0.1,0.6-0.4,1.4-0.9,1.4c-0.2,0-0.4,0.1-0.6,0c-0.5,0-0.9-0.3-1-0.8c0-0.1,0-0.1-0.1-0.2
		c-0.1,0.1-0.2,0.2-0.3,0.4c-0.1-0.2-0.2-0.4-0.1-0.6c0.2-0.5,0.5-0.9,1.1-1c0.4,0,0.7,0,1.1,0.2c0.3,0.2,0.5,0.7,0.4,1
		c-0.2-0.2-0.3-0.1-0.4,0c-0.4,0.3-0.8,0.3-1.2,0.1c-0.1-0.1-0.2-0.2-0.2-0.3c0-0.2,0.1-0.2,0.2-0.2c0.1,0,0.2,0,0.3,0
		c0.3,0,0.5,0.1,0.8,0.2c0,0,0.2,0,0.2,0c0.2-0.2,0.1-0.5-0.2-0.6c-0.4-0.1-0.7-0.1-1.1,0c-0.2,0.1-0.5,0.5-0.4,0.7
		c0.1,0.4,0.3,0.8,0.8,0.9c0.2,0,0.4,0,0.6,0c0.6-0.1,1-0.5,1-1.1c-0.1-0.7-0.1-1.5,0-2.2c0-0.5,0-1,0.1-1.5c0.2-1,0.4-1.9,0.7-2.9
		c0-0.2,0-0.4-0.1-0.5c-0.1-0.2-0.2-0.4-0.4-0.5c-0.5-0.4-1.5-0.3-1.6,0.6c0,0.2-0.1,0.3-0.1,0.5c-0.1,0.9-0.1,1.7-0.3,2.5
		c-0.3,1.2-0.5,2.4-1.1,3.5c-0.1,0.1-0.1,0.2-0.2,0.4c-0.3,0.9,0.1,1.7,1,2c0.5,0.2,1.1,0.1,1.6,0c0.6-0.1,1.2-0.3,1.8-0.3
		c1.2-0.1,2.4-0.2,3.5-0.4c0.9-0.1,1.7,0,2.6,0.1c0.8,0.1,1.7,0.3,2.5,0.4C23,23.9,23.4,23.8,23.7,23.4z M23.5,22.3
		c-0.1,0.1-0.2,0.2-0.2,0.2c-0.1,0.1-0.2,0.1-0.2-0.1c0-0.1,0-0.3,0-0.4c0.2-0.6,0.6-0.8,1.2-0.9c0.7-0.1,1.3,0.3,1.5,1
		c0,0.1,0,0.2,0,0.3c-0.1,0-0.1,0-0.1,0c-0.2-0.1-0.2-0.1-0.3,0.1c-0.1,0.4-0.3,0.7-0.7,0.8c-0.2,0.1-0.4,0.1-0.7,0.1
		c-0.2,0-0.2,0.1-0.2,0.2c0,0.1,0,0.1,0,0.2c0.6,0,1.1-0.1,1.5-0.5c0.5-0.4,0.7-0.9,0.4-1.4c-0.4-0.9-0.6-1.8-0.7-2.8
		c-0.2-1.3-0.3-2.7-0.3-4c0-0.3-0.1-0.4-0.3-0.5c-0.1-0.1-0.2-0.1-0.4-0.1c-0.9-0.2-1.6,0.5-1.4,1.4c0.2,0.8,0.3,1.6,0.4,2.4
		c0.1,0.9,0,1.9,0,2.8c0,0.4-0.1,0.8-0.2,1.2c-0.1,0.4,0.1,0.7,0.5,0.7c0.4,0.1,0.8,0.1,1.1,0.1c0.1,0,0.2,0,0.3-0.1
		c0.4-0.2,0.6-0.5,0.6-0.8c0-0.1-0.1-0.3-0.1-0.4c-0.1-0.2-0.2-0.3-0.4-0.3c-0.3,0-0.7,0-1,0.2c-0.3,0.2-0.4,0.6-0.2,0.9
		c0.1-0.1,0.3-0.2,0.3-0.3c0.2-0.3,0.5-0.3,0.8-0.3c0.1,0,0.2,0.1,0.2,0.2c0,0.1,0,0.2,0,0.3c0,0.1-0.2,0.1-0.3,0.2
		c-0.2,0-0.4,0-0.6,0c-0.1,0-0.3,0-0.4,0c-0.1,0.1-0.2,0.1-0.2-0.1C23.6,22.5,23.6,22.4,23.5,22.3z M8.2,24.3c0,0.1,0,0.1,0,0.2
		c0.2,0.6,0.3,1.2,0.5,1.8c0,0.1,0.1,0.2,0.2,0.3c0.2,0.1,0.4,0.2,0.5,0.2c1.4,0.3,2.7,0.3,4.1,0.1c1-0.1,2.1-0.3,3.1-0.5
		c0.4-0.1,0.4-0.1,0.4-0.5c0-0.5-0.1-1-0.1-1.4c0-0.2-0.1-0.2-0.2-0.2c-0.4,0.1-0.9,0.2-1.3,0.2c-1,0.2-2,0.5-3,0.5
		c-0.9,0-1.8,0.1-2.7,0C9.1,24.8,8.6,24.7,8.2,24.3C8.3,24.3,8.2,24.3,8.2,24.3z M18.2,28C18.2,28,18.2,28,18.2,28
		C18.1,27.9,18.1,27.9,18.2,28c0-1.2,0-2.3,0-3.3c0-0.3,0-0.6,0-0.9c0-0.1,0-0.2-0.1-0.2c-0.2,0-0.2,0-0.2,0.2c0,0.4,0,0.8,0,1.3
		c0,1.1,0,2.3,0,3.4c0,0.1,0,0.1,0,0.2c0-0.1,0-0.1,0-0.2c0-1.3-0.1-2.6-0.1-3.9c0-0.3,0-0.5,0-0.8c0-0.1-0.1-0.2-0.2-0.2
		c-0.1,0-0.1,0.1-0.1,0.2c0,0,0,0.1,0,0.1c0,1.3,0.1,2.6,0.1,3.9c0,0,0,0.1,0,0.1c0,0,0,0,0-0.1c-0.1-1.2-0.1-2.4-0.2-3.5
		c0-0.2,0-0.4,0-0.6c0-0.2-0.1-0.2-0.2-0.2c-0.1,0-0.1,0.1-0.1,0.2c0,0.3,0,0.5,0,0.8c0.1,0.8,0.1,1.6,0.2,2.4
		c0.1,0.6,0.1,1.2,0.2,1.8c0,0.1,0.1,0.2,0.2,0.2c0.2,0,0.4,0,0.5,0c0.3,0,0.3,0,0.3-0.3c0-0.8,0.1-1.5,0.1-2.3
		c0-0.5,0.1-1.1,0.1-1.6c0-0.4,0-0.7,0-1.1c0-0.1,0-0.2-0.2-0.2c-0.1,0-0.1,0.1-0.1,0.2c0,0.3,0,0.6,0,1c0,1-0.1,1.9-0.1,2.9
		C18.2,27.7,18.2,27.8,18.2,28z M27.7,24.3c-0.1,0.1-0.2,0.1-0.2,0.1c-0.4,0.2-0.7,0.5-1.1,0.7c-0.5,0.3-1.1,0.4-1.7,0.5
		c-0.1,0-0.3,0-0.3,0.2c-0.2,0.5-0.4,0.9-0.7,1.4c-0.1,0.2-0.1,0.3,0.2,0.3c0.5,0,0.9,0,1.4-0.1c0.7-0.1,1.3-0.3,1.9-0.7
		c0.3-0.2,0.5-0.6,0.6-1c0-0.2,0.1-0.5,0.1-0.7C27.7,24.7,27.7,24.5,27.7,24.3z M21.4,26.7c0-0.1,0.1-0.2,0.1-0.2
		c0.1-0.2,0.1-0.4,0.2-0.7c0.1-0.2,0.2-0.5,0.3-0.7c0-0.1,0-0.2-0.1-0.2c-0.5-0.2-1-0.4-1.5-0.5c-0.5-0.1-1-0.2-1.5-0.2
		c-0.2,0-0.3,0-0.3,0.2c0,0.5-0.1,1-0.1,1.6c0,0.1,0.1,0.2,0.2,0.2c0.4,0.1,0.8,0.1,1.2,0.2c0.4,0.1,0.6,0,0.8-0.3
		c0.1-0.1,0.2-0.2,0.4-0.4C21.4,26.1,21.2,26.4,21.4,26.7z M23,26.6C23,26.6,23,26.7,23,26.6c0,0.2-0.1,0.3-0.2,0.4
		c-0.3,0.3-0.6,0.6-1,0.9c-0.1,0.1-0.1,0.2-0.1,0.3c0.1,0,0.2,0.1,0.4,0.1c0,0,0.1,0,0.1,0c0.4-0.1,0.7-0.3,0.9-0.6
		c0.6-0.7,1-1.4,1.3-2.3c0-0.1,0-0.2,0-0.2c-0.1,0-0.2,0-0.2,0c-0.6,0.3-1.2,0.6-1.8,1c-0.6,0.4-1.1,1-1.2,1.8c0,0.1,0,0.1,0,0.2
		c0.1,0,0.2,0,0.2-0.1c0.2-0.1,0.3-0.3,0.4-0.4C22.2,27.3,22.6,27,23,26.6z M28.7,19.7c-0.2,0.4-0.5,0.6-0.9,0.9
		c-0.3,0.2-0.5,0.5-0.7,0.7c0,0-0.1,0.2,0,0.2c0,0,0.1,0.1,0.2,0.1c0.5-0.1,1-0.3,1.4-0.7c0.6-0.6,1-1.4,1.1-2.3c0-0.1,0-0.2,0-0.3
		c0-0.1-0.1-0.1-0.2-0.1c-0.5,0.3-1,0.6-1.5,1c-0.3,0.2-0.5,0.4-0.7,0.6c-0.3,0.3-0.4,0.6-0.3,1c0,0,0,0.1,0.1,0.1c0,0,0.1,0,0.1,0
		C27.7,20.4,28.2,20.1,28.7,19.7z M21.9,29.2c-0.2,0.2-0.6,0.4-1,0.4c-0.2,0-0.4,0.1-0.5,0.1c-0.1,0-0.1,0.1-0.2,0.1
		c0.1,0,0.1,0.1,0.2,0.1c0.2,0,0.5,0.1,0.7,0.1c0.9,0,1.7-0.5,2.4-1c0.2-0.1,0.3-0.4,0.5-0.6c0,0,0-0.1,0-0.2c0,0-0.1,0-0.2,0
		c-0.1,0-0.2,0-0.3,0c-0.6,0-1.2,0.1-1.8,0.1c-0.7,0-1.3,0.3-1.8,0.7c-0.1,0-0.1,0.1-0.2,0.2c0,0.1,0,0.1,0,0.2c0,0,0.1,0,0.2,0
		c0.2,0,0.4,0,0.6-0.1C21,29.4,21.5,29.3,21.9,29.2z M27.1,17.1c0.1,0.6,0.3,1.2,0.2,1.8c0,0.1,0,0.3,0,0.4c0,0.1,0.1,0.1,0.1,0.1
		c0,0,0.1-0.1,0.1-0.1c0.2-0.3,0.3-0.6,0.4-1c0-0.2,0-0.4,0-0.6c0.1-0.9-0.3-1.7-0.9-2.4c-0.1-0.1-0.2-0.1-0.3-0.1
		c-0.1,0-0.1,0.1-0.1,0.2c-0.1,0.7-0.1,1.4-0.2,2c-0.1,0.6,0.1,1.2,0.4,1.7c0.1,0.1,0.2,0.1,0.2,0c0.1-0.2,0.1-0.5,0.1-0.7
		C27.2,18.1,27.1,17.6,27.1,17.1z M13.9,29.3C13.9,29.3,13.9,29.2,13.9,29.3c0.1,0,0.1,0,0.2,0c0.7,0.2,1.5,0.3,2.2,0.2
		c0.2,0,0.2-0.1,0.1-0.2c0,0-0.1-0.1-0.1-0.1c-0.5-0.3-1.1-0.6-1.7-0.6c-0.7,0-1.3-0.1-1.9-0.3c-0.1,0-0.2,0-0.2,0
		c0,0.1,0,0.1,0,0.2c0,0.1,0,0.1,0.1,0.1c0.3,0.3,0.6,0.7,0.9,1c0.8,0.6,1.6,0.7,2.5,0.4c0.1,0,0.3-0.1,0.3-0.2
		c0-0.2-0.2-0.1-0.4-0.1c-0.7,0-1.3-0.1-2-0.4C14,29.3,13.9,29.3,13.9,29.3z M7.3,17.5c0,0,0.1,0,0.1-0.1c0-0.4-0.1-0.7-0.2-1.1
		c0-0.4-0.1-0.8-0.1-1.1c0,0,0,0,0,0c0,0.3,0.1,0.5,0.1,0.8c0.1,0.4,0.2,0.8,0.3,1.3c0,0,0.1,0.1,0.1,0.1c0,0,0.1-0.1,0.1-0.1
		c0,0,0-0.1,0-0.1c0.1-0.7,0.2-1.3,0-2c-0.2-0.6-0.4-1.2-0.6-1.9c0,0-0.1-0.1-0.1-0.1c0,0-0.1,0.1-0.1,0.1c-0.1,0.2-0.1,0.4-0.2,0.7
		c-0.3,0.7-0.4,1.3-0.3,2c0.1,0.5,0.2,1,0.5,1.4C7.2,17.3,7.3,17.4,7.3,17.5z M19.1,13.3C19.1,13.3,19.1,13.3,19.1,13.3
		c0.1-0.5,0.1-0.9,0.1-1.4c0-0.3,0-0.3-0.3-0.3c-0.6,0-1.2,0-1.8,0c-0.4,0-0.4,0-0.4,0.4c0,1,0.1,1.9,0.1,2.9c0,0.1,0.1,0.2,0.1,0.2
		c0.1,0,0.1-0.1,0.1-0.2c0-0.9-0.1-1.8-0.1-2.7c0-0.2,0.1-0.3,0.3-0.3c0.1,0,0.1,0.1,0.2,0.1c0,0.1,0,0.2,0,0.3c0,0.8,0,1.6,0,2.4
		c0,0.1,0,0.2,0.1,0.2c0.1,0,0.1-0.1,0.1-0.2c0-0.3,0-0.6,0-0.9c0-0.6,0-1.2-0.1-1.8c0-0.2,0.1-0.2,0.2-0.2c0.2,0,0.3,0.1,0.3,0.3
		c0,0.7,0,1.3,0,2c0,0.2,0,0.5,0,0.7c0,0.1,0.1,0.1,0.2,0.2c0-0.1,0.1-0.1,0.1-0.2c0-0.3,0-0.5,0-0.8c0-0.7,0-1.3,0-2
		c0-0.2,0.1-0.3,0.2-0.2c0.2,0,0.2,0.2,0.2,0.3c0,0.4,0,0.8,0,1.3c0,0.5,0,0.9,0,1.4c0,0.1,0.1,0.1,0.1,0.2c0,0,0.1-0.1,0.1-0.1
		c0,0,0-0.1,0-0.1C19.1,14.3,19.1,13.8,19.1,13.3z M26.3,19.8C26.3,19.8,26.3,19.8,26.3,19.8c0,0.5,0,1.1,0,1.6c0,0,0,0.1,0,0.1
		c0,0.1,0,0.3,0,0.4c0,0.1,0.1,0.2,0.1,0.2c0.1,0,0.2-0.1,0.2-0.1c0.4-0.6,0.5-1.3,0.4-2c-0.1-0.6-0.4-1.2-0.7-1.7
		c0,0-0.1-0.1-0.1-0.1c-0.1,0-0.2-0.1-0.3-0.1c0,0-0.1,0.1-0.1,0.2c0,0.2,0,0.4-0.1,0.6c-0.1,0.4-0.2,0.9-0.2,1.3
		c-0.1,0.5,0.2,0.8,0.4,1.2c0,0,0,0,0.1,0C26.2,20.9,26.3,20.4,26.3,19.8z M28.2,14.6C28.2,14.6,28.2,14.6,28.2,14.6
		c0.1,0.1,0.1,0.2,0.1,0.3c0,0.4,0.1,0.8-0.1,1.2c0,0.1,0,0.2,0,0.4c0,0.2,0.1,0.2,0.3,0.1c0.1-0.1,0.1-0.1,0.2-0.2
		c0.3-0.5,0.3-1,0.3-1.5c0-0.5-0.1-0.9-0.2-1.4c0-0.2-0.1-0.4-0.1-0.6c0,0-0.1-0.1-0.1-0.1c0,0-0.1,0-0.1,0.1
		c-0.1,0.2-0.2,0.3-0.3,0.5c-0.3,0.6-0.4,1.2-0.5,1.9c0,0.4,0,0.8,0.2,1.1c0,0.1,0.1,0.1,0.2,0.2c0.1-0.1,0.1-0.1,0.1-0.2
		c0.1-0.4,0.1-0.8,0.2-1.3C28.2,15,28.2,14.8,28.2,14.6z M19.4,29.1C19.4,29.1,19.4,29.1,19.4,29.1c0.1,0,0.3,0,0.4,0
		c0.2-0.1,0.4-0.2,0.6-0.4c0.3-0.2,0.5-0.4,0.6-0.8c0.2-0.6,0.3-1.1,0.2-1.7c0-0.1-0.1-0.1-0.1-0.2c0,0-0.1,0-0.2,0.1
		c-0.4,0.4-0.8,0.8-1.2,1.1c-0.2,0.2-0.4,0.4-0.5,0.7c-0.1,0.2-0.2,0.4-0.2,0.6c0,0.1,0,0.1,0,0.2c0.1,0,0.2,0,0.2-0.1
		c0.3-0.3,0.6-0.6,0.9-0.9c0-0.1,0.1-0.1,0.1-0.2c0,0,0,0,0.1,0.1C20,28.2,19.7,28.6,19.4,29.1z M6.2,19.2c0,0.1,0,0.2,0,0.3
		c0.1,0.7,0.3,1.4,0.8,2c0.3,0.3,0.6,0.6,1,0.6c0.1,0,0.1,0,0.2,0c0-0.1,0-0.1-0.1-0.2c-0.3-0.4-0.5-0.7-0.8-1.1
		c0,0-0.1-0.1-0.1-0.1c0,0,0,0,0,0c0.1,0.1,0.3,0.3,0.4,0.4c0.3,0.4,0.6,0.7,0.9,1.1c0,0.1,0.1,0.1,0.2,0.1c0,0,0-0.1,0-0.1
		c0,0,0-0.1,0-0.1c-0.1-0.6-0.3-1.1-0.7-1.5C7.5,20,6.9,19.6,6.2,19.2C6.3,19.2,6.2,19.2,6.2,19.2z M9.2,22C9.2,22,9.3,22,9.2,22
		c0.1,0,0.1-0.1,0.1-0.1c0.3-0.6,0.6-1.2,0.5-1.9c0-0.6,0-1.1,0-1.7c0-0.1,0-0.1-0.1-0.2c0,0-0.1,0-0.1,0.1
		c-0.6,0.5-0.9,1.1-1.1,1.8c-0.2,0.6,0,1.1,0.2,1.6c0,0.1,0.1,0.1,0.1,0.1c0-0.1,0.1-0.1,0.1-0.2c0-0.2,0-0.4,0-0.6
		c0.1-0.4,0.1-0.8,0.2-1.2c0,0,0,0,0.1,0C9.2,20.7,9.1,21.3,9.2,22z M8.4,20.2C8.4,20.2,8.4,20.2,8.4,20.2c0.1-0.1,0.1-0.1,0.1-0.2
		c0.1-0.4-0.1-0.8-0.2-1.2c-0.4-0.9-1-1.4-1.8-1.8c-0.1,0-0.2,0-0.2-0.1c0,0.1,0,0.2,0,0.2c0,0,0,0,0,0.1c0.2,0.7,0.6,1.4,1,2.1
		c0.2,0.3,0.4,0.5,0.6,0.7c0.1,0.1,0.2,0.1,0.3,0.1c0-0.1,0-0.2,0-0.3c0,0,0,0,0-0.1c-0.2-0.4-0.4-0.8-0.6-1.2c0,0,0,0,0,0
		C7.8,19.2,8.1,19.7,8.4,20.2z M8.9,16.8c0,0.2-0.1,0.5-0.1,0.7c-0.1,0.3-0.2,0.6-0.2,0.9c0,0.1,0,0.1,0,0.2c0.1,0,0.1,0,0.2-0.1
		c0.1-0.1,0.2-0.1,0.2-0.2c0.3-0.6,0.5-1.2,0.4-1.9c-0.1-0.5-0.2-1-0.3-1.5c0-0.1-0.1-0.1-0.1-0.2c-0.1,0.1-0.1,0.2-0.1,0.2
		c-0.1,0.3-0.2,0.5-0.3,0.8c-0.2,0.5-0.4,0.9-0.4,1.4c0,0.3,0,0.6,0,0.9c0,0.1,0.1,0.2,0.2,0.3c0.1-0.1,0.2-0.1,0.2-0.2
		C8.6,17.7,8.8,17.3,8.9,16.8z M25.5,23.8c0,0,0.1,0.1,0.1,0.1c-0.1,0-0.1,0-0.2,0.1c-0.3,0.3-0.6,0.5-0.9,0.8
		c-0.1,0-0.1,0.1-0.1,0.2c0,0.1,0.1,0.2,0.2,0.4c0,0,0.1,0,0.2,0c0.4-0.1,0.7-0.4,0.9-0.7c0.6-0.7,0.9-1.4,1.3-2.2c0,0,0-0.1,0-0.1
		c0-0.1,0-0.2-0.2-0.2c-0.1,0-0.2,0.1-0.2,0.1c-0.2,0.1-0.4,0.2-0.4,0.4c-0.2,0.4-0.4,0.8-0.8,1c-0.3,0.2-0.6,0.3-0.9,0.4
		c-0.2,0.1-0.3,0.1-0.3,0.3c0,0.1-0.1,0.2-0.1,0.3c0,0.1,0,0.1,0,0.2c0.1,0,0.1,0,0.2,0c0.3-0.2,0.6-0.4,0.8-0.6
		C25.2,24.1,25.3,24,25.5,23.8z M29.1,17.2c0,0,0,0.1,0,0.1c-0.2,0.5-0.5,0.9-0.8,1.3c0,0.1-0.1,0.2,0,0.2c0.1,0.1,0.2,0.1,0.3,0
		c0.2-0.2,0.5-0.3,0.7-0.6c0.6-0.8,0.8-1.7,0.7-2.6c0,0,0-0.1-0.1-0.2c-0.1,0.1-0.2,0.2-0.3,0.3c-0.3,0.3-0.7,0.7-1,1
		c-0.4,0.4-0.5,0.9-0.5,1.5c0,0.1,0,0.2,0.1,0.2C28.6,18.2,28.7,17.6,29.1,17.2z M29.6,21.3c0,0-0.1,0-0.1,0
		c-0.4,0.1-0.8,0.1-1.2,0.2c-0.4,0.1-0.8,0.2-1.1,0.5c0,0-0.1,0.1-0.1,0.1c0,0.2,0,0.4,0.1,0.5c0.4-0.1,0.8-0.3,1.2-0.4c0,0,0,0,0,0
		c-0.1,0-0.2,0.1-0.2,0.1c-0.4,0.2-0.8,0.4-1.1,0.6c-0.2,0.1-0.3,0.4-0.3,0.6C28.1,23.5,29.4,22.1,29.6,21.3z M15.3,27.2
		C15.3,27.2,15.3,27.2,15.3,27.2C15.3,27.2,15.3,27.3,15.3,27.2c0.5,0.5,0.8,1.1,1.1,1.6c0,0.1,0.1,0.1,0.2,0.2
		c0-0.1,0.1-0.2,0.1-0.3c-0.1-0.6-0.3-1.2-0.8-1.7c-0.3-0.3-0.6-0.5-1-0.3c-0.1,0-0.2,0-0.3,0c-0.1,0-0.1,0-0.2,0.1
		c0.1,0.4,0.6,1.3,0.9,1.6c0.2,0.2,0.5,0.3,0.8,0.4c0,0,0,0,0.1,0C15.9,28.3,15.6,27.8,15.3,27.2z M28.9,14
		C28.9,14.1,28.9,14.1,28.9,14c0,0.1,0,0.3,0,0.4c0.1,0.5,0.1,1,0,1.6c0,0.1,0,0.1,0,0.2c0.1,0,0.1,0,0.2-0.1
		c0.2-0.2,0.4-0.4,0.6-0.6c0,0,0.1-0.1,0.2-0.1c0,0,0.1,0.1,0.1,0.2c0,0.3,0,0.6,0,0.9c0,0.3,0,0.6,0.3,0.7c0.1,0.1,0.2,0.1,0.3,0.2
		c0-0.1,0-0.2,0-0.3c-0.1-0.6-0.2-1.3-0.2-1.9c0-0.3-0.2-0.6-0.5-0.7c-0.3-0.1-0.5-0.3-0.8-0.5C29,14.1,28.9,14.1,28.9,14z
		 M8.5,23.1C8.5,23.1,8.5,23,8.5,23.1c0.2,0,0.3,0.1,0.4,0.2c0.1,0.1,0.2,0.2,0.3,0.2c0.3,0.1,0.5,0.3,0.5,0.6
		c0,0.3,0.2,0.5,0.4,0.7c0.1,0.1,0.1,0.1,0.2,0c0.1-0.2,0-0.7-0.2-0.8c-0.4-0.3-0.6-0.7-0.7-1.1c-0.1-0.2-0.1-0.3-0.2-0.3
		C8.4,22.2,7.8,22,7.1,22c-0.1,0-0.1,0-0.2,0.1c0,0.1,0,0.2,0.1,0.2c0.4,0.4,0.7,0.8,1.1,1.2c0,0.1,0.1,0.1,0.2,0.1
		c0.1,0,0.3-0.1,0.4-0.2c0,0,0-0.1,0-0.1C8.6,23.2,8.5,23.1,8.5,23.1z M17.9,9.4C17.9,9.4,17.9,9.4,17.9,9.4c-0.6,0-1.2,0-1.8,0
		c-0.1,0-0.1,0.1-0.2,0.1c0,0,0.1,0.1,0.1,0.1c0.1,0,0.1,0,0.2,0c0.3,0,0.3,0.1,0.4,0.4c0.1,0.2-0.1,0.2-0.2,0.2
		c-0.1,0-0.1,0.1-0.1,0.2c0.1,0,0.1,0.1,0.2,0.1c0.9,0,1.9,0,2.8,0c0.1,0,0.1-0.1,0.2-0.1c0,0-0.1-0.1-0.1-0.1
		c-0.1-0.1-0.2-0.1-0.2-0.2c-0.1-0.3,0.1-0.5,0.4-0.5c0.1,0,0.1,0,0.2,0c0.1,0,0.1-0.1,0.2-0.1c-0.1,0-0.1-0.1-0.2-0.1
		C19.1,9.4,18.5,9.4,17.9,9.4z M11.9,27.1c0,0.1,0.1,0.1,0.1,0.1c0.6,0.6,1.2,1.1,2.1,1.2c0.1,0,0.1,0,0.2,0c0-0.1,0-0.1-0.1-0.2
		c-0.3-0.3-0.5-0.5-0.8-0.8c0,0-0.1-0.1-0.1-0.1c0.1,0,0.2,0.1,0.3,0.2c0.3,0.2,0.5,0.4,0.8,0.6c0.1,0.1,0.2,0.1,0.3,0.1
		c0-0.1,0-0.2,0-0.3c-0.1-0.3-0.3-0.6-0.5-0.8c-0.1-0.1-0.2-0.1-0.3-0.1c-0.4,0-0.9,0.1-1.3,0.1C12.4,27.1,12.1,27.1,11.9,27.1z
		 M22.9,24.9C22.9,24.9,22.9,24.9,22.9,24.9c-0.1,0.3-0.2,0.6-0.3,0.9c0,0,0,0,0.1,0.1c0.2-0.1,0.5-0.3,0.7-0.4
		c0.1,0,0.1-0.1,0.2-0.2c0.1-0.2,0.1-0.4,0.2-0.6c0.1-0.3,0.1-0.6,0-0.9c-0.1,0-0.1,0.1-0.2,0.1c-0.1,0.1-0.3,0.2-0.4,0.3
		c-0.5,0.3-0.9,0.8-1.2,1.4c-0.1,0.3-0.2,0.6-0.2,0.8c0,0,0,0.1,0,0.2c0.1,0,0.1,0,0.2,0c0.1-0.1,0.3-0.3,0.4-0.4
		C22.5,25.6,22.7,25.3,22.9,24.9z M29.8,22.4c0.1-0.1,0.1-0.2,0.1-0.3c0.2-0.6,0.3-1.3,0.5-1.9c0,0,0-0.1,0-0.1
		c-0.2-0.2-0.4-0.4-0.6-0.7c0,0-0.1,0-0.1,0c0,0,0,0.1-0.1,0.1c-0.2,0.5-0.5,1-0.8,1.4c-0.1,0.1-0.1,0.2-0.1,0.3
		c0.1,0,0.2,0.1,0.3,0.1c0.1,0,0.1,0,0.2,0c0.1,0,0.3-0.1,0.5-0.1c0,0.1,0,0.2-0.1,0.2c-0.1,0.1-0.1,0.3-0.2,0.4c0,0.1,0,0.1,0,0.2
		C29.6,22.1,29.7,22.2,29.8,22.4z M17.8,9.2C17.8,9.3,17.8,9.3,17.8,9.2c0.8,0,1.5,0,2.3,0c0.1,0,0.2,0,0.2-0.1c0-0.1,0-0.2-0.2-0.2
		c-0.1,0-0.2,0-0.3,0c-1.4,0-2.7,0-4.1,0c-0.1,0-0.2,0-0.3,0c-0.1,0-0.1,0.1-0.2,0.2c0.1,0.1,0.1,0.1,0.2,0.2c0,0,0.1,0,0.1,0
		C16.4,9.2,17.1,9.2,17.8,9.2z M6.5,22.9c0,0.1,0,0.1,0.1,0.1c0.3,0.6,0.7,1.2,1,1.8c0.1,0.1,0.1,0.1,0.2,0c0.1-0.1,0.1-0.2,0.2-0.3
		c0-0.1,0.1-0.1,0.1-0.2c0-0.1,0-0.3,0.1-0.4c0-0.1,0-0.2-0.1-0.3c-0.1-0.2-0.2-0.3-0.4-0.5c-0.2-0.2-0.4-0.4-0.7-0.7
		c0,0-0.2-0.1-0.2,0C6.7,22.6,6.6,22.8,6.5,22.9z M11.3,28.6c0-0.1,0.1-0.1,0.1-0.2c0.1-0.3,0.2-0.6,0.3-1c0,0,0-0.1,0-0.1
		c-0.1-0.2-0.4-0.2-0.6-0.2c-0.5,0-1-0.1-1.4-0.1c-0.2,0-0.3-0.1-0.4-0.1c0,0,0,0,0,0.1C9.9,27.6,10.6,28.1,11.3,28.6z M6,19.5
		C6,19.5,6,19.5,6,19.5c0-0.1,0-0.3,0.1-0.4c0,0,0-0.1,0.1-0.1c0,0,0.1,0,0.1,0.1c0.1,0,0.1,0.1,0.1,0.1c0.1,0.1,0.3,0.2,0.4,0.3
		c0,0,0.1,0,0.1,0c0,0,0-0.1,0-0.1c-0.2-0.5-0.5-1-0.7-1.5c0-0.1-0.1-0.1-0.2,0C6,18,5.8,18.2,5.7,18.3c-0.1,0.1-0.2,0.2-0.2,0.4
		c0.1,0.6,0.2,1.2,0.3,1.8c0,0,0.1,0.1,0.1,0.1c0.1,0,0.4-0.3,0.3-0.4C6.2,20,6.1,19.8,6,19.5z M24.2,28.2c-0.1,0.1-0.1,0.3-0.2,0.4
		c0,0.1,0,0.2,0,0.3c0.1,0,0.2,0,0.3-0.1c0.5-0.3,0.9-0.7,1.4-1c0.1-0.1,0.2-0.2,0.1-0.3c-0.1-0.2-0.2-0.1-0.3-0.1
		c-0.4,0.1-0.8,0.1-1.2,0.2c-0.2,0-0.4,0-0.6,0c0,0-0.1,0.1-0.1,0.1c0,0.2,0.1,0.4,0.2,0.5C23.8,28.2,24,28.2,24.2,28.2
		C24.1,28.2,24.1,28.2,24.2,28.2z M10.8,16.6C10.8,16.6,10.8,16.6,10.8,16.6c-0.4,0.4-0.9,0.8-1.1,1.4c0.1,0,0.1,0,0.1,0
		c0.3,0,0.3,0,0.2,0.3c0,0.4-0.1,0.8-0.1,1.2c0,0.1,0,0.2,0,0.3c0,0,0,0,0.1,0C10.5,18.8,10.8,17.7,10.8,16.6z M27.7,23.4
		c0.4,0.6,0.3,0.6,0.2,1.2c0,0.3-0.1,0.6-0.1,1c0,0,0,0.1,0,0.1c0,0,0.1,0,0.1-0.1c0.2-0.3,0.5-0.7,0.7-1c0.1-0.1,0.1-0.2,0-0.3
		c-0.2-0.3-0.3-0.5-0.5-0.8C28,23.2,28,23.2,27.7,23.4C27.7,23.4,27.7,23.4,27.7,23.4z M16,23.5c-0.5,0.1-0.9,0.1-1.4,0.2
		c-0.1,0-0.1,0.1-0.2,0.1c0,0.1-0.1,0.3-0.1,0.4c0,0.1,0,0.2,0.2,0.1c0.5-0.1,1-0.2,1.4-0.3c0.3-0.1,0.3-0.1,0.3-0.4
		C16.3,23.6,16.3,23.6,16,23.5z M6.7,14.2c-0.2,0-0.6,0.3-0.7,0.4c0,0,0,0,0,0.1c-0.1,0.5-0.2,1-0.3,1.5c0,0,0,0.1,0,0.2
		c0.1,0,0.1,0,0.2,0C6,16.1,6.2,16,6.4,15.9c0.1-0.1,0.1-0.2,0.1-0.3c0-0.3,0-0.6,0.1-0.9C6.6,14.5,6.6,14.4,6.7,14.2z M17.9,10.7
		C17.9,10.7,17.9,10.7,17.9,10.7c-0.5,0-0.9,0-1.4,0c-0.1,0-0.3,0-0.3,0.2c0,0.2,0.1,0.2,0.3,0.2c0.8,0,1.6,0,2.5,0
		c0.1,0,0.2,0,0.3,0c0.1,0,0.2-0.1,0.2-0.2c0-0.1-0.1-0.1-0.2-0.1C18.8,10.7,18.3,10.7,17.9,10.7z M17.9,6.8
		C17.9,6.8,17.9,6.8,17.9,6.8c-0.1,0.3-0.2,0.6-0.3,0.9c0,0.2,0,0.5,0.2,0.7c0.1,0.1,0.2,0.1,0.3,0.1c0.2,0,0.4-0.2,0.4-0.5
		C18.5,7.5,18.2,7.2,17.9,6.8z M19.4,23.5c-0.1,0-0.1,0.1-0.2,0.1c-0.1,0.1,0.1,0.4,0.2,0.5c0.5,0.1,1,0.2,1.4,0.3c0,0,0.1,0,0.1,0
		c0.1-0.1,0-0.5-0.2-0.5C20.4,23.7,19.9,23.6,19.4,23.5z M17.9,29.7c-0.1,0-0.2,0-0.3,0c-0.1,0-0.2,0.1-0.2,0.1
		c-0.1,0.2-0.1,0.6,0.1,0.7c0.2,0.2,0.6,0.1,0.8,0c0.2-0.1,0.2-0.4,0.1-0.6c-0.1-0.2-0.2-0.2-0.4-0.2C18,29.7,17.9,29.7,17.9,29.7z
		 M17.8,13.6C17.8,13.6,17.8,13.6,17.8,13.6c0,0.4,0,0.8,0,1.3c0,0.1,0.1,0.1,0.1,0.2c0,0,0.1-0.1,0.1-0.1c0-0.1,0-0.1,0-0.2
		c0-0.5,0-1,0-1.5c0-0.3,0-0.6,0-0.8c0-0.2-0.2-0.3-0.3-0.2c-0.1,0.1-0.1,0.1-0.1,0.2C17.8,12.8,17.8,13.2,17.8,13.6z M17.8,11.1
		C17.8,11.1,17.8,11.1,17.8,11.1c-0.4,0-0.8,0-1.2,0c-0.1,0-0.1,0-0.2,0.1c0,0,0,0.1,0.1,0.2c0,0,0.1,0.1,0.2,0.1c0.8,0,1.6,0,2.3,0
		c0.1,0,0.1-0.1,0.2-0.2c-0.1,0-0.1-0.1-0.2-0.1C18.6,11.1,18.2,11.1,17.8,11.1z M17.4,14.6C17.4,14.6,17.4,14.6,17.4,14.6
		c0-0.6-0.1-1.3-0.1-1.9c0-0.1,0-0.2,0-0.3c0-0.1-0.1-0.2-0.2-0.1c0,0,0,0.1,0,0.2c0,0.6,0.1,1.2,0.1,1.9c0,0.2,0,0.4,0,0.7
		c0,0.1,0.1,0.1,0.1,0.1c0-0.1,0.1-0.1,0.1-0.2C17.4,14.8,17.4,14.7,17.4,14.6z M18.5,13.6C18.5,13.6,18.5,13.6,18.5,13.6
		c0,0.1,0,0.3,0,0.4c0,0.3,0,0.6,0,0.8c0,0.1,0.1,0.1,0.1,0.2c0-0.1,0.1-0.1,0.1-0.2c0,0,0-0.1,0-0.1c0-0.8,0-1.5,0.1-2.3
		c0-0.1,0-0.1,0-0.2c0,0-0.1-0.1-0.2-0.1c0,0.1-0.1,0.1-0.1,0.2C18.5,12.8,18.5,13.2,18.5,13.6z M16.9,6.9C16.9,7,16.9,7,16.9,6.9
		c-0.1,0.2-0.1,0.4-0.2,0.6c-0.1,0.2-0.1,0.5-0.1,0.7c0.1,0.2,0.2,0.3,0.4,0.2c0.2-0.1,0.1-0.2,0.1-0.4c-0.1-0.3,0-0.6,0.1-0.9
		c0.1-0.3,0-0.5-0.2-0.7c0,0-0.1,0-0.1,0c0,0,0,0.1,0,0.1C16.8,6.7,16.9,6.8,16.9,6.9z M17.9,29.1C17.9,29.1,17.9,29.1,17.9,29.1
		c-0.2,0-0.4,0-0.6,0c-0.1,0-0.2,0.1-0.2,0.2c0,0.2,0.1,0.2,0.2,0.2c0.4,0,0.7,0,1.1,0c0.2,0,0.2-0.1,0.2-0.2c0-0.2-0.1-0.2-0.2-0.2
		C18.3,29.1,18.1,29.1,17.9,29.1z M27.2,24.4C27.2,24.4,27.2,24.5,27.2,24.4c0.2-0.1,0.3-0.2,0.4-0.3c0.1-0.1,0-0.5-0.1-0.6
		c-0.2-0.1-0.6,0-0.7,0.2c-0.1,0.1-0.1,0.2,0.1,0.2c0.3,0,0.3,0.1,0.3,0.3C27.1,24.3,27.2,24.4,27.2,24.4z M9.5,24.8
		c0,0,0.1-0.1,0.1-0.1c0-0.2-0.1-0.5-0.2-0.7c0,0-0.1-0.1-0.1-0.1c-0.1,0-0.2,0.1-0.3,0.1c0,0-0.1,0.1-0.1,0.1
		C8.8,24.5,9.1,24.8,9.5,24.8z M16.6,8.6c-0.1-0.2-0.2-0.4-0.2-0.6c0-0.2-0.1-0.4-0.1-0.6c0,0-0.1,0-0.1,0c-0.3,0.3-0.3,0.9,0,1.2
		C16.3,8.6,16.5,8.7,16.6,8.6z M10.4,24.3C10.4,24.3,10.4,24.3,10.4,24.3c0,0.2,0.1,0.3,0.1,0.4c0.1,0.2,0.6,0.3,0.7,0.1
		c0,0,0,0,0,0c-0.1-0.2-0.1-0.4-0.2-0.4C10.9,24.3,10.7,24.3,10.4,24.3z M19.6,30.5c0,0,0.1-0.1,0.1-0.2c0-0.1,0-0.2-0.1-0.2
		c-0.3-0.1-0.5-0.2-0.8-0.4c-0.1,0-0.2,0-0.2,0c0,0.1,0,0.2,0.1,0.3c0,0,0.1,0.1,0.1,0.1c0.2,0.1,0.4,0.2,0.6,0.3
		C19.4,30.5,19.5,30.5,19.6,30.5z M17.2,30.1c0-0.2-0.1-0.3-0.2-0.2c-0.3,0.1-0.6,0.2-0.8,0.3c-0.1,0-0.2,0.1-0.1,0.2
		c0,0.1,0.1,0.2,0.2,0.1c0.2-0.1,0.5-0.2,0.8-0.3C17.1,30.2,17.2,30.1,17.2,30.1z M19.8,8c0-0.1,0-0.2,0-0.3c0-0.1-0.1-0.1-0.1-0.2
		c0,0-0.1,0.1-0.1,0.1c0,0.1-0.1,0.2-0.1,0.3c-0.1,0.1-0.1,0.3-0.2,0.4c-0.1,0.1-0.1,0.2,0,0.3c0.1,0,0.2,0,0.3,0
		C19.7,8.5,19.8,8.3,19.8,8z M8.7,24.5C8.7,24.5,8.8,24.5,8.7,24.5c0.1-0.2,0.1-0.3,0-0.4c-0.1-0.2,0-0.3,0.2-0.3
		c0.1,0,0.1-0.1,0.1-0.1c0-0.1-0.1-0.2-0.1-0.2c-0.2-0.1-0.4,0-0.5,0.1c-0.1,0.1,0,0.2,0,0.4c0,0.1,0,0.1,0.1,0.2
		C8.5,24.4,8.6,24.4,8.7,24.5z M11.6,24.9c0.2,0,0.3,0,0.4,0c0,0,0.1-0.1,0.1-0.1c0-0.3-0.1-0.5-0.5-0.4c-0.4,0.1-0.4,0.1-0.2,0.4
		C11.5,24.8,11.6,24.8,11.6,24.9z M27,24.4c0-0.3-0.2-0.4-0.5-0.3c0,0-0.1,0.1-0.1,0.1c0,0.2,0.1,0.4,0.1,0.6c0,0,0.1,0.1,0.1,0.1
		C26.8,24.8,27,24.6,27,24.4z M12.2,24.2c0,0.1,0,0.2,0.1,0.3c0,0.1,0.1,0.2,0.2,0.3c0.1-0.1,0.1-0.2,0.1-0.3
		C12.7,24.1,12.6,24.1,12.2,24.2C12.2,24.2,12.2,24.2,12.2,24.2z M19.7,26.5C19.7,26.6,19.7,26.6,19.7,26.5c0,0.2,0,0.4,0.1,0.5
		c0.1-0.1,0.2-0.2,0.4-0.3c0,0,0,0,0,0c0,0,0-0.1-0.1-0.1C20,26.6,19.8,26.6,19.7,26.5z M25.3,18.9c0,0.3,0,0.6,0.2,1
		C25.7,19.5,25.6,19.1,25.3,18.9z M16.1,26.8C16.1,26.8,16.1,26.7,16.1,26.8c0-0.1-0.1-0.2-0.1-0.2c-0.1,0-0.3,0.1-0.4,0.1
		c0.1,0.1,0.1,0.2,0.2,0.3c0,0,0.1,0.1,0.1,0.1c0.1,0.1,0.2,0.1,0.2-0.1C16.1,26.9,16.1,26.8,16.1,26.8z M16.6,10.1
		c-0.1-0.1-0.2-0.1-0.2-0.2c0,0-0.1,0.1-0.1,0.1c0,0.1,0.1,0.2,0.1,0.2C16.4,10.2,16.5,10.2,16.6,10.1z M19.5,9.9
		c-0.1,0-0.3,0-0.3,0.2c0,0,0.1,0.1,0.1,0.1C19.5,10.2,19.5,10,19.5,9.9z"/>
	<path class="st0" d="M17,18.9c0,0.1,0,0.2,0,0.3c0,0.1-0.1,0.1-0.1,0.1c0,0-0.1-0.1-0.1-0.1c0-0.3,0-0.6,0-0.8c0,0,0.1-0.1,0.1-0.1
		c0.2,0,0.3,0,0.5,0c0.2,0,0.2,0.3,0.1,0.4c-0.1,0.1,0,0.2,0,0.3c0,0,0.1,0.1,0.1,0.1c0,0.1,0,0.1,0,0.2c-0.1,0-0.1,0-0.2,0
		c-0.1-0.1-0.1-0.2-0.2-0.2C17.1,18.9,17.1,18.9,17,18.9C17,18.9,17,18.9,17,18.9z M17.1,18.7c0.1-0.1,0.1-0.1,0.1-0.2
		c0,0-0.1-0.1-0.1-0.1c0,0-0.1,0.1-0.1,0.1C16.9,18.6,17,18.6,17.1,18.7z"/>
	<path class="st0" d="M15.5,19c0-0.1,0-0.1,0-0.2c0-0.3,0-0.4,0.3-0.4c0.1,0,0.2,0,0.2,0c0.1,0,0.1,0.1,0.2,0.1
		c-0.1,0-0.1,0.1-0.2,0.1c0,0-0.1,0-0.1,0c-0.1,0-0.1,0.1-0.1,0.2c0,0,0.1,0.1,0.1,0.1c0,0,0.1,0,0.1,0.1c0,0-0.1,0.1-0.1,0.1
		c0,0-0.1,0-0.1,0c0,0-0.1,0.1-0.1,0.2c0,0,0.1,0.1,0.1,0.1c0.1,0,0.2,0,0.2,0c0,0,0.1,0.1,0.1,0.1c0,0,0,0.1-0.1,0.1
		c-0.2,0-0.4,0.1-0.5,0.1c0,0-0.1-0.1-0.1-0.1C15.5,19.2,15.5,19.1,15.5,19C15.5,19,15.5,19,15.5,19z"/>
	<path class="st0" d="M17.1,20.3c0.4,0,0.5,0.1,0.4,0.5c0,0.1,0,0.1,0.1,0.2c0,0.1,0.1,0.3,0.1,0.3c-0.2,0.1-0.2-0.1-0.3-0.2
		c0,0-0.1-0.1-0.1-0.1c0,0-0.1-0.1-0.1,0c0,0-0.1,0.1-0.1,0.1c0,0.1,0,0.1,0,0.2c0,0-0.1,0.1-0.1,0.1c0,0-0.1,0-0.1-0.1
		c0-0.3,0-0.6-0.1-0.8c0,0,0.1-0.1,0.1-0.1C17,20.3,17,20.3,17.1,20.3z M17.2,20.4c-0.1,0.1-0.1,0.1-0.1,0.2c0,0.1,0.1,0.2,0.2,0.1
		c0.1,0,0.1-0.1,0.2-0.1C17.3,20.5,17.3,20.5,17.2,20.4z"/>
	<path class="st0" d="M19.7,17.6c-0.1-0.1-0.2-0.1-0.2-0.2c-0.1-0.2-0.1-0.2-0.3,0c0,0-0.1,0.1-0.1,0.1c0,0-0.1,0-0.1,0
		c0,0,0-0.1,0-0.1c0,0,0,0,0,0c0.2-0.2,0.3-0.5,0.1-0.7c0,0,0-0.1,0-0.1c0.1,0,0.1,0,0.4,0.3c0.1-0.1,0.2-0.2,0.2-0.2
		c0,0,0.1,0,0.2,0c-0.1,0.1-0.1,0.1-0.2,0.2c-0.1,0.1-0.1,0.2,0,0.4C19.7,17.3,19.7,17.4,19.7,17.6C19.7,17.5,19.7,17.6,19.7,17.6z"
		/>
	<path class="st0" d="M17.4,16.5c0.2-0.1,0.3-0.1,0.3,0.1c0,0.1,0.1,0.2,0.1,0.3c0,0,0.1,0.1,0.1,0.1c0,0,0.1-0.1,0.1-0.1
		c0.1-0.1,0.1-0.2,0.1-0.3c0,0,0.1-0.1,0.2-0.1c0,0,0.1,0.1,0.1,0.1c-0.1,0.3-0.2,0.5-0.3,0.8c-0.1,0.1-0.3,0.1-0.4,0
		C17.7,17,17.6,16.8,17.4,16.5z"/>
	<path class="st0" d="M14.6,19.2c0-0.1,0.1-0.2,0.1-0.2c0-0.1,0-0.2,0.1-0.3c0-0.1,0.1-0.1,0.2-0.1c0,0.1,0.1,0.1,0,0.2
		c-0.1,0.3-0.1,0.5-0.2,0.8c0,0.1-0.1,0.1-0.2,0.2c-0.1-0.1-0.1-0.1-0.2-0.2c-0.1-0.2-0.2-0.4-0.3-0.6c-0.1-0.1-0.1-0.2,0-0.2
		c0.1-0.1,0.1,0,0.2,0.1C14.4,19,14.4,19.1,14.6,19.2C14.5,19.2,14.5,19.2,14.6,19.2z"/>
	<path class="st0" d="M20.6,19.5c-0.1,0-0.2,0-0.2-0.1c0-0.1-0.1-0.2-0.2-0.2c-0.1,0-0.2,0.1-0.2,0.2c0,0-0.1,0.1-0.2,0.1
		c0-0.1,0-0.1,0-0.2c0.1-0.2,0.2-0.4,0.3-0.7c0-0.1,0.1-0.2,0.2-0.1c0.1,0,0.2,0.1,0.2,0.2c0.1,0.2,0.1,0.5,0.1,0.7
		C20.6,19.4,20.6,19.4,20.6,19.5z M20.4,18.8c-0.1-0.1-0.1-0.1-0.1-0.2c0,0.1-0.1,0.1-0.1,0.2c0,0,0.1,0.1,0.1,0.1
		C20.3,18.9,20.3,18.9,20.4,18.8z"/>
	<path class="st0" d="M15.6,20.6c-0.1,0.3-0.1,0.6-0.2,0.9c0,0.1-0.2,0.1-0.3,0c-0.1-0.2-0.3-0.4-0.4-0.7c0,0,0-0.1,0-0.1
		c0,0,0.1,0,0.2,0c0.1,0.1,0.1,0.2,0.2,0.3c0.1,0.1,0.1,0.1,0.2,0c0.1-0.1,0.1-0.3,0.2-0.4c0,0,0.1-0.1,0.1-0.1
		C15.5,20.5,15.5,20.5,15.6,20.6z"/>
	<path class="st0" d="M19,18.2c0.2,0,0.3,0,0.5,0.1c0,0,0.1,0.1,0.1,0.1c0,0-0.1,0.1-0.1,0.1c-0.2,0-0.3,0.1-0.3,0.3
		c0,0.1,0,0.3,0,0.4c0,0.1-0.1,0.1-0.1,0.1c0,0-0.1-0.1-0.1-0.1c0-0.2,0-0.3,0-0.5c0-0.2,0-0.2-0.2-0.3c-0.1,0-0.1-0.1-0.2-0.1
		c0.1,0,0.1-0.1,0.2-0.1C18.8,18.2,18.9,18.2,19,18.2C19,18.2,19,18.2,19,18.2z"/>
	<path class="st0" d="M19.1,20.4c0.2-0.1,0.2,0,0.3,0.1c0,0.1,0.1,0.2,0.1,0.2c0,0,0.1,0.1,0.1,0.1c0,0,0.1-0.1,0.1-0.1
		c0-0.1,0.1-0.2,0.1-0.3c0,0,0.1,0,0.2-0.1c0,0,0,0.1,0,0.1c-0.1,0.2-0.2,0.5-0.3,0.7c0,0-0.1,0.1-0.2,0.1c-0.1,0-0.2,0-0.2-0.1
		C19.3,21,19.2,20.7,19.1,20.4z"/>
	<path class="st0" d="M20.7,20.8c0.1,0.1,0.1,0.2,0.1,0.2c0,0.1,0.1,0.1,0.1,0.2c0.1,0.1,0,0.4-0.1,0.4c-0.1,0.1-0.4,0-0.5-0.1
		c0,0,0-0.1,0-0.1c0,0,0.1,0,0.1,0c0,0,0.1,0,0.1,0c0.1,0,0.1,0,0.2,0c0-0.1,0-0.1,0-0.2c-0.1-0.1-0.1-0.2-0.2-0.3
		c-0.1-0.2,0-0.3,0.2-0.3c0.1,0,0.2,0,0.2,0.1c0,0,0.1,0.1,0.1,0.1c-0.1,0-0.1,0-0.2,0C20.8,20.8,20.8,20.8,20.7,20.8z"/>
	<path class="st0" d="M21,19.5c0.1,0.1,0.1,0.1,0.1,0.1c0.1,0,0.1,0,0.2,0c0-0.1,0-0.1,0-0.2c-0.1-0.1-0.2-0.2-0.2-0.3
		c-0.1-0.1,0-0.3,0.1-0.3c0.1-0.1,0.3,0,0.4,0.1c0,0,0,0.1,0,0.1c0,0-0.1,0-0.1,0c-0.1,0-0.1,0-0.2,0c0,0.1,0.1,0.1,0.1,0.2
		c0.1,0.1,0.3,0.3,0.2,0.5c-0.1,0.1-0.2,0.2-0.3,0.2c-0.1,0-0.2-0.1-0.3-0.2C21,19.7,21,19.6,21,19.5z"/>
	<path class="st0" d="M18.3,20.3c0.1,0,0.2,0,0.3,0c0,0,0.1,0.1,0.1,0.1c0,0-0.1,0.1-0.1,0.1c-0.2,0-0.3,0.1-0.2,0.3
		c0,0.1,0,0.2,0,0.4c0,0-0.1,0.1-0.1,0.1c0,0-0.1-0.1-0.1-0.1c0-0.2,0-0.3,0-0.5c0-0.1,0-0.2-0.2-0.2c0,0-0.1,0-0.1,0
		c0,0-0.1-0.1-0.1-0.1c0,0,0.1-0.1,0.1-0.1C18.1,20.3,18.2,20.3,18.3,20.3C18.3,20.3,18.3,20.3,18.3,20.3z"/>
	<path class="st0" d="M17,17.4c-0.2,0-0.4,0.1-0.6,0.1c-0.1,0-0.2,0-0.2-0.2c0-0.2,0-0.5,0-0.7c0-0.1,0-0.2,0.2-0.2
		c0.1,0,0.1,0.1,0.1,0.2c0,0.1,0,0.2,0,0.4c0,0.2,0,0.2,0.3,0.2C17,17.2,17,17.2,17,17.4z"/>
	<path class="st0" d="M18.2,18.7c0,0.1,0,0.2,0,0.4c0,0.1-0.1,0.1-0.1,0.2c-0.1-0.1-0.2-0.1-0.2-0.2c0-0.1,0-0.2,0-0.3
		c0-0.1,0-0.3,0-0.4c0,0,0.1-0.1,0.1-0.1c0,0,0.1,0.1,0.1,0.1C18.2,18.5,18.2,18.6,18.2,18.7C18.2,18.7,18.2,18.7,18.2,18.7z"/>
	<path class="st0" d="M16.3,21.1c0,0,0,0.1,0,0.1c0,0.1,0,0.2-0.1,0.2c-0.1,0-0.2,0-0.2-0.2c0-0.2,0-0.5,0-0.7c0-0.1,0-0.2,0.1-0.2
		c0.1,0,0.1,0.1,0.2,0.2C16.3,20.7,16.3,20.9,16.3,21.1C16.3,21,16.3,21,16.3,21.1z"/>
	<path class="st0" d="M12.7,25.3c0.2,0.2,0.3,0.5,0.5,0.7c0,0,0,0,0.1,0c0-0.2,0-0.5,0-0.7c0,0,0,0,0.1,0c0,0.4,0.1,0.7,0.1,1.1
		c0,0,0,0-0.1,0c-0.2-0.2-0.3-0.5-0.5-0.7c0,0,0,0-0.1,0c0,0.1,0,0.1,0,0.2c0,0.2,0,0.3,0,0.5c0,0,0,0.1-0.1,0.1
		c0,0-0.1-0.1-0.1-0.1C12.7,26.1,12.7,25.7,12.7,25.3C12.7,25.4,12.7,25.3,12.7,25.3z"/>
	<path class="st0" d="M16,26C16,25.9,15.9,25.9,16,26c0-0.4,0-0.7-0.1-1.1c0-0.1,0-0.2,0.2-0.2c0.4,0,0.7,0.4,0.5,0.8
		C16.4,25.8,16.2,25.9,16,26z M16,25.8c0.3-0.1,0.5-0.4,0.4-0.7c0-0.1-0.1-0.2-0.2-0.2c-0.1,0-0.2,0-0.2,0.1
		C16,25.2,16,25.5,16,25.8z"/>
	<path class="st0" d="M11.1,25.9c0,0.1,0,0.2-0.1,0.3c0,0.1-0.1,0.2-0.3,0.2c-0.2,0-0.3-0.1-0.3-0.2c0-0.2,0-0.4,0-0.6
		c0-0.1,0.1-0.3,0.3-0.3c0.2,0,0.3,0.1,0.3,0.3C11.1,25.7,11.1,25.8,11.1,25.9z M11,26c0-0.1,0-0.3-0.1-0.4c-0.1-0.1-0.2-0.1-0.3,0
		c-0.1,0.2-0.1,0.6,0,0.8c0.1,0.1,0.2,0.1,0.3,0C10.9,26.2,11,26.1,11,26z"/>
	<path class="st0" d="M11.6,25.4c0,0.1,0,0.1,0,0.2c0,0.2,0,0.4,0,0.5c0,0.1,0.1,0.2,0.2,0.2c0.2,0,0.2-0.1,0.2-0.3
		c0-0.2,0-0.3,0-0.5c0-0.1,0-0.2,0-0.2c0,0,0,0,0.1,0c0,0,0.1,0.1,0.1,0.1c0,0.2,0,0.5,0,0.7c0,0.2-0.2,0.3-0.3,0.3
		c-0.2,0-0.3-0.1-0.3-0.2c0-0.3,0-0.5-0.1-0.8C11.5,25.5,11.6,25.4,11.6,25.4C11.6,25.4,11.6,25.4,11.6,25.4z"/>
	<path class="st0" d="M13.9,25.7c0-0.1,0-0.3,0-0.4c0-0.1,0.1-0.1,0.1-0.1c0.2,0,0.4,0.2,0.5,0.4c0,0.3,0,0.5-0.2,0.7
		c-0.1,0.1-0.2,0.1-0.3,0.1c0,0-0.1-0.2-0.1-0.2C13.9,25.9,13.9,25.8,13.9,25.7C13.9,25.7,13.9,25.7,13.9,25.7z M14.5,25.7
		c0-0.2-0.2-0.4-0.3-0.4c-0.1-0.1-0.2,0-0.2,0.1c0,0.2,0,0.4,0,0.6c0,0.1,0,0.1,0.1,0.1c0.1,0,0.1,0,0.2,0
		C14.3,26,14.4,25.8,14.5,25.7z"/>
	<path class="st0" d="M15.5,24.9c-0.1,0-0.2,0-0.3,0.1C15,25,15,25.1,15,25.3c0,0.2,0.1,0.1,0.2,0.1c0,0,0.1,0,0.1,0c0,0,0,0,0,0
		c-0.1,0-0.1,0-0.2,0.1c-0.1,0-0.2,0.1-0.2,0.1c0,0.1,0,0.2,0,0.3c0,0,0.1,0,0.2,0c0.1,0,0.2,0,0.3,0c-0.1,0-0.2,0.1-0.2,0.1
		c-0.1,0-0.2,0-0.3,0.1c0-0.2,0-0.4-0.1-0.6c0-0.1,0-0.3,0-0.4c0-0.1,0-0.2,0.2-0.2C15.2,24.9,15.4,24.9,15.5,24.9
		C15.5,24.9,15.5,24.9,15.5,24.9z"/>
	<path class="st0" d="M9.9,25.8c-0.1,0-0.3,0-0.3,0.2c0,0.1,0,0.2,0,0.4c-0.1-0.1-0.2-0.7-0.1-1.2c0.2,0,0.3,0,0.5,0.1
		c0,0,0,0,0,0.1c-0.1,0-0.2,0-0.2,0c-0.1,0-0.2,0-0.2,0.1c0,0.1,0,0.2,0.1,0.3C9.8,25.8,9.9,25.8,9.9,25.8
		C9.9,25.8,9.9,25.8,9.9,25.8z"/>
	<path class="st0" d="M25,26.6c0-0.2,0-0.4,0-0.6c0-0.2,0.1-0.3,0.3-0.3c0.2,0,0.3,0.1,0.3,0.3c0,0.1,0,0.2,0.1,0.3
		c0.1,0.3,0,0.5-0.3,0.5C25.1,27,25,26.8,25,26.6z M25.1,26.6c0,0.1,0,0.2,0.2,0.2c0.1,0,0.2-0.1,0.2-0.2c0-0.1,0-0.2-0.2-0.2
		C25.2,26.4,25.1,26.5,25.1,26.6z M25.3,25.9C25.3,25.9,25.3,25.9,25.3,25.9c-0.1,0.1-0.2,0.1-0.2,0.2c0,0.1,0.1,0.1,0.1,0.2
		c0.1-0.1,0.1-0.1,0.1-0.2C25.4,26,25.4,25.9,25.3,25.9z"/>
	<path class="st0" d="M27.2,25.4c0,0.1,0.1,0.2,0.1,0.3c0,0.1,0,0.2,0,0.4c0,0.1-0.1,0.2-0.3,0.2c-0.1,0-0.2-0.2-0.2-0.4
		c0.1-0.2,0.1-0.3,0-0.5c0-0.1,0.1-0.3,0.3-0.3C27.1,25.1,27.2,25.2,27.2,25.4z M27.2,25.9c-0.1-0.1-0.2-0.2-0.2-0.2
		c-0.1,0-0.2,0.1-0.2,0.2c0,0.1,0.1,0.1,0.2,0.2C27.1,26.1,27.1,26,27.2,25.9z M27,25.2c-0.1,0.1-0.1,0.2-0.1,0.2
		c0,0,0.1,0.1,0.1,0.1c0,0,0.1-0.1,0.1-0.2C27.1,25.3,27.1,25.3,27,25.2z"/>
	<path class="st0" d="M26.1,26.7c0-0.1,0.1-0.2,0.1-0.3c0-0.1,0-0.2-0.1-0.2c-0.2-0.1-0.3-0.2-0.2-0.4c0.1-0.1,0.2-0.2,0.4-0.1
		c0.1,0.1,0.1,0.2,0.1,0.3c0,0.2-0.1,0.4-0.1,0.7C26.3,26.6,26.2,26.7,26.1,26.7C26.1,26.7,26.1,26.7,26.1,26.7z M26.4,25.9
		c-0.1-0.1-0.2-0.2-0.2-0.2c-0.1,0-0.2,0.1-0.2,0.2c0,0,0.1,0.1,0.1,0.2C26.2,26,26.2,26,26.4,25.9z"/>
	<path class="st0" d="M24.5,27c0-0.1-0.1-0.1-0.1-0.2c0-0.3,0-0.5,0-0.8c0,0,0-0.1,0.1-0.1c0,0,0.1,0.1,0.1,0.1c0,0.3,0,0.6,0,0.9
		C24.6,26.9,24.6,27,24.5,27C24.6,27,24.5,27,24.5,27z"/>
	<path class="st0" d="M18.9,25.8c0.1-0.4,0.3-0.7,0.4-1c0.1-0.1,0.2-0.1,0.2,0c0.1,0.4,0.1,0.8,0.2,1.1c0,0-0.1,0-0.1,0
		c0-0.1,0-0.1-0.1-0.2c0-0.1,0-0.2-0.1-0.2c-0.1-0.1-0.3-0.1-0.4,0.1C19.1,25.8,19.1,25.8,18.9,25.8z M19.5,24.9
		C19.5,24.9,19.5,24.9,19.5,24.9c-0.1,0.1-0.2,0.2-0.2,0.3c0,0,0.1,0.1,0.1,0.1c0,0,0.1,0,0.1-0.1C19.5,25.1,19.5,25,19.5,24.9z"/>
	<path class="st0" d="M20.9,25.4c0,0.4-0.2,0.6-0.6,0.6c-0.1,0-0.2,0-0.1-0.2c0.1-0.3,0.1-0.6,0.2-1c0-0.1,0.1-0.1,0.2-0.1
		C20.8,24.9,20.9,25.1,20.9,25.4z M20.8,25.4c0-0.1,0-0.2-0.1-0.3c0-0.1-0.1-0.1-0.2-0.1c0,0.1-0.1,0.1-0.1,0.2
		c0,0.2-0.1,0.3-0.1,0.5c0,0.1,0,0.2,0,0.2c0.1,0,0.2,0,0.3-0.1C20.7,25.7,20.8,25.5,20.8,25.4z"/>
	<path class="st0" d="M17.3,9.7C17.3,9.7,17.3,9.7,17.3,9.7c0.4,0,0.4,0,0.4,0.4c0,0.1,0,0.2-0.2,0.3c-0.2,0-0.3,0.1-0.4-0.1
		C17,10.1,17,10,16.9,9.9c0-0.1,0-0.2,0.1-0.2C17.1,9.7,17.2,9.7,17.3,9.7C17.3,9.7,17.3,9.7,17.3,9.7z M17.4,9.8
		c-0.1,0-0.3,0-0.3,0.2c0,0.1,0.2,0.2,0.3,0.2c0.1,0,0.3-0.1,0.3-0.2C17.6,9.9,17.5,9.9,17.4,9.8z"/>
	<path class="st0" d="M18.4,9.7c0.3,0,0.4,0,0.4,0.2c0,0.3-0.1,0.5-0.3,0.5c-0.3,0-0.4-0.1-0.4-0.4C18.1,9.7,18.1,9.7,18.4,9.7z
		 M18.4,10.3c0.2,0,0.3-0.2,0.3-0.3c0-0.1-0.1-0.2-0.2-0.2c-0.2,0-0.4,0.1-0.3,0.2C18.2,10.2,18.3,10.2,18.4,10.3z"/>
</g>
</svg>
